<?xml version="1.0" encoding="UTF-8"?>
<svg id="Lager_2" data-name="Lager 2" xmlns="http://www.w3.org/2000/svg" viewBox="0 0 2676.68 2676.68">
  <defs>
    <style>
      .cls-1 {
        fill: #fefad9;
        stroke: #1d1d1b;
        stroke-miterlimit: 10;
        stroke-width: 10px;
      }

      .cls-2, .cls-3, .cls-4 {
        stroke-width: 0px;
      }

      .cls-3 {
        fill: #397477;
      }

      .cls-4 {
        fill: #1d1d1b;
      }
    </style>
  </defs>
  <g id="Lager_1-2" data-name="Lager 1">
    <g>
      <path class="cls-3" d="M1338.34,0C599.19,0,0,599.19,0,1338.34s599.19,1338.34,1338.34,1338.34,1338.34-599.19,1338.34-1338.34S2077.48,0,1338.34,0Z"/>
      <path class="cls-2" d="M1338.34,71.17C638.5,71.17,71.17,638.5,71.17,1338.34s567.33,1267.17,1267.17,1267.17,1267.17-567.33,1267.17-1267.17S2038.18,71.17,1338.34,71.17Z"/>
      <circle class="cls-1" cx="1325.58" cy="1324.52" r="1122.33"/>
      <g>
        <g>
          <g>
            <path class="cls-2" d="M1907.36,2283.43c-1.89,6.1-4.07,12.05-6.59,17.84,8.42-7.95,18.23-14.39,27.67-21.06,15.09-10.68,29.8-21.95,44.79-32.78,26.61-19.23,53.34-38.3,79.3-58.41.43-.79.94-1.53,1.47-2.24,5.56-7.48,11.44-14.68,19.49-19.72,2.12-1.33,4.35-2.55,6.26-4.15,4.12-3.43,8.56-5.65,13.26-7.06,19.12-16.59,37.56-33.92,55.55-51.8,23.72-23.58,52.11-45.52,69.86-74.21.35-.57.74-1.07,1.15-1.52-25.56-12.46-51.32-24.52-77.04-36.63-15.53-7.31-31.42-13.88-46.97-21.15-48.31-22.57-96.54-45.29-144.78-67.99-24.93-11.73-49.75-23.71-74.76-35.28-17.53-8.11-35.23-15.84-52.94-23.55-10.54-4.59-20.45-10.23-30.04-16.52-8.56-5.61-13.3-13.11-15.05-23.48-4.52-26.82-9.73-53.53-15.08-80.19-3.75-18.69-5.52-37.52-5.55-56.54-.06-34.72-.05-69.45-.06-104.17,0-11.11.72-22.14,2.66-33.13.99-5.59,1.19-11.39,1.05-17.08-.2-8.63-4.5-15.11-12.42-18.54-5.55-2.4-11.36-4.51-17.26-5.7-30.63-6.2-61.51-9.64-92.83-6.85-4.28.38-8.57.55-12.86.74-2.14.1-4.3.13-6.44-.01-4.63-.31-6.35-1.73-7.05-6.46-.57-3.88-.66-7.84-.91-11.76-.28-4.47,1.86-7.49,5.76-9.41,5.13-2.53,10.51-4.68,15.36-7.67,7.8-4.81,15.35-5.17,23.27-.55,2.77,1.62,5.67,3.15,8.7,4.18,7.09,2.42,14.17,5.13,21.48,6.61,14.02,2.83,28.23,4.72,42.31,7.3,12.04,2.21,24.17,2.84,36.35,2.64,12.19-.2,24.35-1.07,36.12-4.57,12.69-3.77,25.45-7.39,37.95-11.73,27.92-9.69,53.73-23.43,77.42-41.16,14.95-11.19,28.49-23.96,41.63-37.14,34.79-34.9,49.76-76.86,44.17-125.97-.73-6.4-1.35-12.81-2.13-19.21-4.29-34.81-16.37-66.62-37.32-94.83-10.26-13.82-22.05-26.4-34.7-38.02-12.16-11.17-23.5-23.06-34.27-35.51-18.15-20.99-38.82-39.04-61.96-54.34-10.76-7.12-21.21-14.65-29.65-24.61-.77-.91-2.23-1.23-4.26-2.29-.44,3.3-.99,5.65-1.04,8.01-.18,10.1-1.88,19.95-4.67,29.62-2.08,7.22-4.26,14.43-6.78,21.5-3.98,11.15-7.13,22.49-9.44,34.11-2.65,13.33-5.53,26.63-8.7,39.85-5.42,22.56-15.21,43.12-29.08,61.74-4.71,6.31-9.39,12.65-13.93,19.08-3.28,4.64-6.93,9.06-7.85,15.04-.46,3.03-2.7,4.8-5.81,5.22.41-4.3-.87-8.2-2.99-11.8-3.53-5.97-7.29-11.81-11.24-18.18-2.49,1.57-4.48,2.83-6.88,4.35.99,1.56,1.63,2.75,2.45,3.79,1.04,1.31,1.24,2.77-.11,3.64-1.01.65-2.74,1-3.81.59-1.86-.71-3.46-2.11-4.81-2.98-3.18,1.31-3.46,3.25-2.99,5.53l-.06.04c5.28.74,7.63,4.31,9.46,9.56-2.83.74-5.14,1.34-7.46,1.94l-1.83,11.04c-.62.97-.57,2.37-.87,3.76,5.59.13,7.87-5.79,13.03-5.37-1.99,6.22-7.59,12.05-15.4,16.28-1.09-3.42-4.03-3-6.74-3.62-3.25-.73-3.36-3.74-.53-6.27.54-.49,1.06-1,2.87-2.71-4.25.85-6.66,1.61-9.09,1.69-1.15.04-2.89-1-3.34-2.01-.42-.94.33-2.59.94-3.73.46-.86,1.49-1.42,2.22-2.07-.3-.81-.42-1.53-.8-2.07-2.82-4.11-2.88-7.67,1.09-11.37,2.81-2.63,3.45-6.91,3.02-13.32-1.31,1.59-2.31,2.44-2.84,3.52-1.07,2.22-1.28,5.24-2.93,6.73-6.4,5.78-7.82,13.38-8.86,21.25-1.59,12.08-1.21,14.87,3.89,27.39-1.3.37-2.57,1.13-3.75,1-4.21-.44-6.82-3.48-9.7-6.23-4.13-3.94-8.39-7.78-12.93-11.22-3.09-2.34-6.11-1.65-8.54,1.26-2.06,2.47-3.66,5.37-5.93,7.61-3.78,3.74-5.42,8.32-6.35,13.32-.39,2.11-.78,4.23-1.08,6.35-4.11,29.43-8.35,58.83-12.25,88.28-3.86,29.11-12.38,56.63-27.71,81.77-7.63,12.52-15.65,24.86-26.48,35.01-.87.81-1.81,2.43-3.6.5,2.23-2.73,4.32-5.61,6.74-8.18,6.77-7.21,10.86-15.89,14.32-24.99,1.3-3.42,2.09-6.83,1.38-10.48-1.05-5.36-5.08-7.04-9.39-3.79-3.4,2.57-6.13,6.21-10.68,6.88-5.05.73-8.13,4.12-11.27,7.63-5.23,5.85-10.45,11.73-15.92,17.36-3.73,3.84-7.71,7.51-11.92,10.81-2.15,1.68-4.98,3.1-7.64,3.4-5.07.57-8.52,3.04-11.67,6.78-2.28,2.71-5.18,4.91-7.82,7.31-4.5,4.09-9.24,7.95-13.49,12.29-13.86,14.12-29.01,26.48-46.4,36.1-6.55,3.62-12.68,8.04-18.92,12.21-10.1,6.75-19.33,14.68-29.82,20.97-8.55,5.13-16.22,11.7-25.7,15.37-2.63,1.02-5.01,2.77-7.39,4.35-8.05,5.35-16.03,10.79-24.07,16.15-9.89,6.6-20.46,11.96-31.85,15.24-24.45,7.03-49.35,8.58-74.41,3.99-9.45-1.73-18.4-1.7-27.41,1.75-7.93,3.04-16.17,2.93-24.34,1.1-4.88-1.09-9.61-2.83-14.47-4.05-13.47-3.38-23.52-11.58-32.13-22.09-8.29-10.12-13.1-22.1-18.84-33.61-3.57-7.16-5.28-14.72-6.76-22.5-1.1-5.77.64-10.08,5.22-12.98,9.34-5.89,18.23-12.8,29.52-14.86,5.19-.94,8.47-3.61,11.54-8.33,5.74-8.83,13.19-16.08,25.5-14.21,3.05.46,6.41-.34,9.51-1.07,8.35-1.97,16.64-4.18,24.94-6.38,2.3-.61,5.6-.59,5.3-4.06-.23-2.68-3.33-2.14-5.11-3.12-.41-.23-.48-1.08-.66-1.52,3.36-2.03,7.13-3.58,9.92-6.18,3.77-3.53,8.04-5.87,12.63-7.93,3.59-1.61,7.15-3.31,10.6-5.19,1.03-.56,1.65-1.89,2.98-3.49-6.32-1.92-11.6-.62-16.84,0-19.2,2.23-38.37,4.71-57.6,6.73-8.17.86-16.43.94-24.66,1.15-13.24.34-25.25-4.47-37.21-9.32-.98-.4-1.88-1.04-2.73-1.68-2.55-1.91-2.82-5.23-.42-7.4,3.19-2.87,6.77-5.33,9.83-8.32,6.7-6.54,14.84-9.96,23.88-11.24,7.43-1.06,14.95-2.16,22.42-2.15,13.07.02,25.66-1.82,37.81-6.64,1.99-.79,4.09-1.33,6.17-1.86,18.21-4.67,36.59-6.57,55.32-3.56,10.6,1.71,21.26,3.08,31.88,4.68,15.39,2.32,29.97.28,43.47-7.84.31-.18.64-.32.96-.48,4.82-2.48,9.6-4.64,15.38-3.29,1.81.42,4.25-.42,6-1.41,3.72-2.09,7.25-4.54,10.71-7.06,4.11-2.99,3.45-8.23-1.2-10.27-5.41-2.37-11.18-2.28-16.9-2.28-3.18,0-5.72,1.39-6.17,4.78-.76,5.63-4.57,7.84-9.42,8.82-4.55.92-9.15,1.88-13.76,2.15-12.56.73-25.07.03-37.39-2.65-9.09-1.98-18.17-4.05-27.2-6.3-12.16-3.03-24.25-6.3-36.39-9.38-8.33-2.11-16.35-1.06-24.01,2.78-4.16,2.08-8.39,4.06-12.4,6.4-8.11,4.73-16.02,5.54-24.23.15-9.18-6.03-19.08-5.88-28.8-1.79-7.55,3.18-14.71,7.28-22.01,11.04-2.21,1.14-4.22,2.71-6.47,3.76-.73.34-2.31-.03-2.82-.64-.51-.61-.59-2.21-.13-2.89,1.58-2.36,3.31-4.66,5.27-6.7,7.24-7.52,15.63-13.62,24.26-19.44,9.22-6.22,17.84-12.97,24.23-22.45,2.89-4.3,7.35-7.89,11.8-10.71,9.27-5.89,16.6-13.36,22.61-22.51,3.1-4.72,7.12-8.97,11.26-12.87,6.43-6.07,13.44-9.27,22.07-3.24,5.52,3.85,11.5,2.69,17.33-.24,14.88-7.47,22.93-19.98,26.7-35.68.29-1.21-.45-2.68-.75-4.23-6.86-1.16-12.07-4.89-17.29-8.73-4.02-2.95-8.21-5.87-12.73-7.89-8.59-3.85-16.07-9.39-23.35-15.09-4.6-3.6-9.31-4.89-14.84-4.9-10.25-.01-19.89,2.38-28.89,7.18-9,4.8-18.4,7.8-28.72,7.76-2.82-.01-5.71.58-8.44,1.36-5,1.42-9.04.1-12.84-3.26-3.2-2.83-6.53-5.58-10.14-7.84-2.68-1.68-6.19-2.06-8.77-3.83-2.5-1.71-4.28-4.46-6.96-7.39-1.59,3.04-2.72,5.17-3.83,7.32-4.22,8.11-7.06,16.44-4.62,25.77.29,1.1-.38,2.44-.62,3.78-4.8-1.59-3.65-7.31-8.17-9.34-.27,2.74-.58,4.83-.68,6.93-.61,12.69-3.86,24.56-9.43,36.06-5.6,11.57-10.35,23.58-15,35.59-4.67,12.07-10.36,23.59-16.91,34.71-1,1.7-2.56,3.08-4.74,5.65-3.21-13.27-12.26-21.03-20.05-29.66-4.55-5.04-9.43-9.82-14.45-14.41-12.23-11.19-22.04-24.33-31.13-38.06-1.58-2.38-3.05-4.86-4.37-7.39-4.64-8.84-8.83-17.94-13.86-26.55-6.91-11.84-11.92-24.41-15.86-37.46-3.02-10.01-4.61-20.25-4.28-30.72.48-15.65,6.89-27.62,21.85-33.95,8.24-3.49,16.36-7.42,24.89-9.98,14.58-4.38,27.31-12.18,40.18-19.86.18-.11.12-.64.28-1.72-1.63-.14-3.36-.67-4.89-.33-4.87,1.08-9.66,2.54-14.51,3.75-1.63.41-3.48,1.24-4.77-1.24,1.5-5.42,8.17-8,8.55-14.22-.33-.61-.56-1.31-1-1.83-2.83-3.36-3.02-5.72-.21-7.8,1.38-1.02,3.13-1.57,4.79-2.14,1.31-.45,2.92-.45,1.89-2.97-8.58-2.45-18.58,1.69-25.59-3.62-2.18-3.83-3.75-6.51-5.23-9.23-1.17-2.15-2.85-4.26-3.22-6.56-1.2-7.53,5.17-17.92,12.32-20.75,5.1-2.02,8.99-1.72,10.8,4.58,1.26,4.4,2.95,8.64,7.61,10.87,4.15-9.14,6.37-10.32,14.75-6.78,6.09,2.58,11.91,1.91,17.78-.05,3.38-1.13,6.58-2.8,9.93-4.06,2.04-.77,4.46.54,5.18,2.63.35,1,.65,2.06.71,3.11.28,5.13-2.14,9.16-8.28,11.13-8.45,2.72-16.98,5.84-26.2,4.44-1.67-.25-3.38-.25-6.36-.46,1.15,2.22,1.44,3.76,2.35,4.33,3.22,2.04,6.77,1.83,10.36.84,7.24-1.99,14.45-4.09,21.77-5.73,5.39-1.2,8.89-4.3,11.26-9.03,1.12-2.24,2.06-4.58,3.34-6.73.84-1.41,2.14-2.56,3.42-4.04,5.09,3.28,7.94,8.02,12.05,11.32,3.01,2.42,2.51,5.45,2.47,8.48q10.97,2.67,16.47,1.21c1.96-6.4-3.78-11.03-4.49-16.65.86-.46,1.31-.83,1.43-.74,1.66,1.18,3.5,2.21,4.85,3.69,4.68,5.09,7.2,11.36,8.98,18.47,3.62-1,6.88-1.89,10.99-3.02.12,3.65.56,6.43.25,9.14-1.52,13.54-1.47,27.14-1.9,40.73-.63,19.82-4.21,39.01-13.25,57.07-5.43,10.85-9.46,22.41-14.03,33.68-.74,1.83-1.03,3.84-1.78,6.69,3.09-.86,3.85-2.5,4.61-4.02,9.4-18.91,18.97-37.73,28-56.81,2.56-5.41,3.91-11.51,5.11-17.44,2.65-13.08,2.42-26.36,1.46-39.6-1.13-15.45-.4-30.79,2.52-45.97,1.52-7.89,1.47-15.62-.26-23.43-1.93-8.73-4.12-17.44-5.43-26.27-1.57-10.56-5.54-20.06-11.75-28.47-6.15-8.32-12.65-16.75-22.57-20.9-7.08-2.96-11.92-7.65-15.09-14.42-.91-1.94-1.99-3.81-3.03-5.69-3.1-5.62-7.8-9.32-13.93-11.03-4.13-1.15-8.34-2.04-12.56-2.8-7.75-1.39-15.54-2.58-23.3-3.89-23.64-4.01-47.3-7.92-70.91-12.12-8.25-1.47-15.59.36-22.65,4.37-5.99,3.4-11.36,7.7-15.35,13.24-5.01,6.96-9.93,14.1-13.85,21.69-5.94,11.51-7.84,23.63-2.08,36.15,2.47-2.02,2.17-4.84,2.13-7.12-.11-6.88,3.62-12.27,6.49-17.93,1.2-2.37,3.71-4.33,6.06-5.78,1.18-.74,3.55-.4,4.97.29,1.67.81,2.19,2.82,1.44,4.68-2.74,6.79-3.03,13.95-3.12,21.1-.12,9.66.07,19.33-.03,28.99-.04,3.92-.51,7.84-.8,11.76-.28,3.8-2.68,5.6-6.09,6.41.67,1.2,1.59,2.33,1.9,3.62,1.1,4.56,4.3,6.08,8.51,6.53.35.04.59,1.16.88,1.78-1.62,1.57-3.29,3.19-4.76,4.61,1.76,3.27,3.21,5.94,4.57,8.47-3.25,2.78-5.62-2.27-8.72.59,2.45,2.45,4.86,4.85,7.56,7.56-1.87.93-3.03,1.5-4.19,2.07,1.02,2.12,3.43,4.9,2.8,6.24-2.11,4.45.89,5.74,3.52,7.59-.35,1.68-1.49,4.34-.9,4.81,3.41,2.7,2.54,5.9,2.46,9.49-.14,7.07.59,14.15.95,21.23,1.71-4.75,2.55-9.6,3.35-14.45.62-3.77,2.6-6.58,5.89-8.51,2.81-1.66,6.37-.36,6.53,2.77.21,3.89.32,7.93-.51,11.7-5.97,27.25-12.23,54.43-18.27,81.67-.84,3.8-1.4,7.77-1.36,11.65.22,22.35,3.83,44.2,11.07,65.33,6.61,19.33,15.11,37.86,24.94,55.78,13.43,24.49,25.99,49.4,36.33,75.38,2.9,7.3,5.66,14.69,7.91,22.2,6.28,20.94,13.25,41.64,22.94,61.24,14.67,29.66,32.98,56.88,55.55,81.23,10.21,11.01,20.51,22.15,29.03,34.43,7.6,10.95,15.89,21.11,24.93,30.79,1.07,1.15,2.99,2.09,1.85,4.96-2.08-1.58-4.23-2.82-5.88-4.54-5.22-5.39-10.26-10.96-15.36-16.47-2.37-2.57-3.97-6.07-8.77-6.73-2.65,1.3-5.87,2.82-9.03,4.44-9.54,4.9-18.87,10.27-28.63,14.68-14.99,6.78-30.3,12.84-45.4,19.36-11.83,5.1-23.9,9.78-35.25,15.8-27.81,14.76-55.41,29.94-82.8,45.47-9.92,5.63-19.14,12.55-28.37,19.3-3.99,2.92-7.54,6.61-10.69,10.45-4.76,5.8-3.15,9.37,1.51,12.67,9.34,6.62,18.51,13.47,27.95,19.95,21.84,15,43.54,30.13,63.13,48.09,9.48,8.7,18.74,17.71,29.67,24.7,1.18.75,2.2,1.81,3.16,2.85,1.19,1.29.99,3.81-.33,4.82-.84.64-1.74,1.25-2.69,1.71-27.41,13.19-54.75,26.52-82.27,39.48-17.15,8.08-34.64,15.46-51.84,23.43-25.65,11.88-51.2,23.99-76.77,36.03-4.53,2.13-9.04,4.33-13.48,6.64-2.21,1.15-4.4,2.45-6.35,3.99-4.53,3.56-4.44,7.91.17,11.6,1.39,1.11,2.96,2.02,4.54,2.85,4.12,2.16,8.31,4.18,12.43,6.35,16.14,8.5,32.29,16.97,48.36,25.61,7.56,4.06,14.88,8.57,22.4,12.73,27.87,15.4,55.91,30.52,83.63,46.18,20.89,11.8,40.96,24.91,58.82,41.12,9.01,8.17,17.8,16.63,27.29,24.22,11.81,9.44,22.15,20.3,32.53,31.16,3.87,4.05,7.59,8.33,8.48,14.2-4.18-1.5-6.86-4.85-9.26-8.24-7.99-11.27-18.33-19.97-29.5-27.84-3.8-2.68-7.71-5.23-11.26-8.22-16.18-13.64-33.87-25.16-51.35-36.98-1.98-1.34-4.38-2.06-6.32-2.95-1.48.84-2.49,1.25-3.32,1.9-24.49,19.24-49.89,37.16-76.66,53.12-3.38,2.01-6.65,4.2-10,6.27-17.03,10.53-33.8,21.52-51.18,31.45-30.14,17.21-59.91,34.88-88.52,54.66-44.54,30.8-85.67,65.73-126.53,101.07-.94.81-1.38,2.2-2.08,3.36,1.66,1.25,2.8,2.11,3.94,2.96h483.4c4.11-3.89,5.6-9.01,6.47-14.32,1.21-7.37,2.09-14.8,3.29-22.17.62-3.82,1.61-7.59,2.49-11.66-1.46-1.89-3.23-3.68-4.43-5.8-2.74-4.85-.38-9.85,5.01-10.21,6.8-.46,13.47.71,19.84,3.2,2.14.84,2.36,4.26.3,5.2-2.55,1.16-5.33,1.82-7.98,2.78-2.29.84-4.92,1.39-4.98,5.44,1.4.39,2.94,1.08,4.52,1.22,4.28.36,7.2,2.82,9.6,6,.49.65.42,2.22-.04,2.95-.42.66-1.72.95-2.67,1.03-.6.05-1.26-.55-1.89-.87-5.9-3.04-8.66-2.91-11.25,2.37-3.75,7.63-6.78,15.65-9.59,23.68-1.32,3.76-.41,7.77,2.06,11.17h4.3c5.07-1.07,10.13-2.17,15.21-3.2,3.45-.7,5.94,1.27,8.42,3.2h6.45c1.93-.78,3.91-2.32,5.77-2.19,5.26.36,10.48,1.41,15.71,2.19h15.04c12.78-.8,25.55-2.26,38.33-2.28,33.84-.06,67.68.43,101.52.86,5.67.07,11.32.92,16.98,1.41h62.31c4.13-.58,8.24-1.23,12.38-1.72,2.77-.33,5.83.21,8.3-.79,5.97-2.42,10.93-.56,15.85,2.51h4.3c4.21-2.57,8.9-2.09,13.49-2.04,13.13.14,26.27.25,39.4.62,5.29.15,10.57.93,15.86,1.42h42.97c16.47-2.24,32.94-2.48,49.41,0h19.34c9.31-2,18.62-2.08,27.93,0h42.97c1.51-2.72.99-5.26.09-8.17-2.42-7.83-5.34-15.72-6.2-23.78-2.04-19.21,1.38-37.58,10-55.16,9.43-19.24,23.28-34.14,41.17-45.53,46.64-29.71,97.17-40.97,151.76-30.8,25.92,4.83,47.66,17.89,63.19,39.34,16.28,22.49,22.84,47.4,14.27,75.05ZM1954.6,1134.06c23.61,32.03,36.16,67.02,28.59,107.35-.36,1.93-1.22,3.78-2.41,7.38-3.13-6.2-2.46-11.22-3.08-15.94-.64-4.95-.74-9.97-1.37-14.92s-1.57-9.87-2.46-14.78c-.89-4.92-1.7-9.86-2.88-14.71-1.09-4.5-2.54-8.92-4-13.32-1.57-4.74-3.26-9.45-5.05-14.11-1.78-4.67-3.76-9.26-5.61-13.89-1.82-4.57-4.83-8.7-5.54-13.52,1.86-1.74,3.01-.59,3.79.47ZM1937.91,1367.61c9.24-13.25,16.73-27.49,23.74-41.98,3.89-8.03,7.45-16.27,10.51-24.65,6.75-18.46,14.64-36.53,19.49-55.66.42-1.65,1.42-3.15,2.64-5.75,4.61,3.29,4.33,7.03,4.46,10.5.41,10.77-.88,21.41-2.64,32.02-5.08,30.66-19.68,56.49-40.29,79.19-3.8,4.19-8.54,7.57-13.05,11.06-1.57,1.21-3.76,1.63-5.5,2.35-2.93-3.15-.66-5.21.64-7.08ZM1839.29,1049.01c2.29-2.63,5.83-3.11,9.82-1.14,1.58.78,3.19,1.72,4.43,2.94,6.65,6.58,11.84,14.25,16.16,22.52.48.91.52,2.05.65,2.56.22,2.64-1.94,4.94-3.99,4.56-1.72-.32-3.59-.7-5-1.64-7.73-5.17-14.99-10.93-20.93-18.19-.45-.55-.86-1.14-1.24-1.75-2.31-3.69-2.27-7.15.1-9.87ZM1769.64,1247.04c1.51-4.73,3.4-9.4,5.68-13.8,8.4-16.15,17.05-32.17,25.55-48.28,1.83-3.47,3.27-7.14,5.17-10.57,2.38-4.29,6.27-4.38,9.47-.53,3.71,4.46,3.98,9.78,4.11,16.71-.31,2.02-.41,5.68-1.46,9.04-4.59,14.67-9.95,29.06-17.62,42.45-3.39,5.92-7.43,11.38-13.46,14.98-5.34,3.19-8.93,2.93-13.83-.69-3.23-2.39-4.8-5.58-3.61-9.31ZM1709.86,1212.88c-.3,2.52-1.27,4.73-3.09,6.55,1.04-2.17,2.07-4.35,3.09-6.55ZM1676.72,1245.69c8.41-6.06,16.24-12.73,22.88-20.76,1.73-2.09,3.46-4.4,6.53-4.67-1,6.28-5.6,10.4-9.3,14.99-4.72,5.86-10.32,10.85-16.9,14.57-2.04,1.15-4.49,2.45-7.01-.75,1.29-1.16,2.46-2.4,3.81-3.37ZM948.19,1008.34c-1.42-.22-2.68-1.33-1.87-2.93.33-.66,1.87-1.22,2.67-1.03,1.13.27,2.08,1.28,4.63,3.01-3.03.58-4.29,1.14-5.43.96ZM994.86,1033.98c-.79-1.92-1.49-2.97-1.52-4.04-.01-.43,1.62-1.42,2.19-1.22.7.24,1.43,1.43,1.46,2.24.02.69-.94,1.41-2.13,3.02ZM998.15,1013.2c-2.5-1.66-4.58-3.74-7.07-4.55-3.99-1.28-8.29-1.59-12.39-2.57-1.87-.44-3.32-.59-4.77.97-.58.62-2.48,1.11-2.61.9-2.75-4.25-5.83-2.58-9.56-1.42-1.85.58-4.44-1.84-4.84-4.73,9.15-5.79,25.45-4.17,37.66,3.74,4.08,2.64,4.26,3,3.58,7.66ZM955.33,991.63c1.03-2.26,2.68-1.21,4.05-1.21-1.27.38-2.54.76-4.05,1.21ZM902.91,970.05c-3.24-4.21-5.85-8.89-8.73-13.34q4.43-3.8,7.39-15.22c2.14-.38,4.52-1.07,6.92-1.18,9.02-.42,17.86,1.22,26.51,3.44,3.67.94,7.15,3.18,10.29,5.43,3.18,2.27,5.9,5.19,8.69,7.96,7.64,7.57,15.66,14.66,24.53,20.79,2.64,1.82,5.2,3.84,7.48,6.08,3.17,3.12,3.4,6.72.87,10.99-8.93-3.33-17.94-5.02-27.26-4.61-2.42-2.19-5.24-3.11-8.7-2.97-3.07.13-6.17-.58-9.91-1-.74.62-2.09,1.73-3.43,2.85-.69,0-1.48.22-2.06-.03-5.86-2.57-11.5-5.82-17.57-7.68-6.65-2.04-11.1-6.4-15.02-11.5ZM1008.46,1474.98c-2.41-2.36-4.23-3.5-5.15-5.15-4.14-7.46-8.1-15.03-11.97-22.64-3.87-7.61-7.49-15.35-11.34-22.98-2.43-4.81-4.45-9.73-4.87-15.15-.07-.96.37-1.95.77-3.83,1.48,1.34,2.68,2.06,3.35,3.11,2.5,3.89,5.12,7.75,7.18,11.89,6.67,13.39,13.17,26.86,19.59,40.37,1.36,2.87,2.25,5.99,3.05,9.07.3,1.16-.26,2.55-.62,5.31ZM857.05,1986.55c-4.96,3.05-10.3,4.93-16.27,4.71-11.03-.35-18.78-6.05-23.93-15.41-2.66-4.84-1.82-9.72,1.74-13.98,8.41-10.04,21.99-11.15,29.85-5.47,3.47,2.51,7.18,4.72,10.46,7.46,8.91,7.45,8.12,16.54-1.85,22.69ZM1025.98,2185.25c-.21-.29-.48-.56-.6-.88-2.11-5.64-4.31-11.26-6.21-16.97-.49-1.49-.2-3.24-.16-4.91,1.93,1.96,4.09,3.76,5.67,5.97,2.9,4.05,5.41,8.38,8.12,12.56,1.48,2.29,1.46,4.7-.13,5.74-2.02,1.31-5.21.59-6.69-1.51ZM1032.02,2198.72c.17-1.08,1.5-2.54,2.55-2.8,2.77-.69,5.24,1.9,5.28,5.07.03,2.28-1.92,4.41-3.83,4.18-2.5-.3-4.51-3.18-4.01-6.45ZM1035.96,2214.99c.28-2,1.61-3.08,3.6-3.1,3.17-.03,5.71,2.37,5.53,5.07-.18,2.53-2.68,4.74-4.96,4.37-2.7-.44-4.61-3.24-4.16-6.34ZM1040.42,2233.07c.34-2.64,2.6-4.47,5.16-4.19,3.06.34,5.37,2.84,5.19,5.62-.19,2.89-2.71,5.36-5.5,5.4-3.08.05-5.32-3.12-4.85-6.84ZM1048.64,2260.83c-2.71-.22-4.22-2.56-4.12-7.5.32-.99.71-3.11,1.68-4.93,1.39-2.6,5.75-2.61,7.15-.02.98,1.82,1.73,3.92,1.94,5.96.4,3.85-2.83,6.79-6.65,6.48ZM1071.69,2319.67c-2.64,1.41-5.52,1.2-8.13-.39-1.75-1.07-2.33-3.06-1.51-4.62,1.29-2.43,3-4.76,4.98-6.67,1.62-1.56,4.05-1.5,5.95-.25,1.37.9,2.36,2.37,3.17,3.23-.15,4.17-1.41,7.08-4.46,8.7ZM1176.13,2312.28c-.02-.28-.03-.56-.05-.84,3.46-.19,6.93-.43,10.39-.53,1.32-.04,2.65.28,3.94,1.36h-14.29ZM1251.86,1915.4c1.41.14,2.86-.03,4.27.08,4.09.33,5.94,1.7,6.37,5.77.67,6.37.86,12.79,1.33,20.43,0,2.69.1,6.61-.02,10.53-.25,8.25-2.05,10.21-9.96,10.61-3.91.2-7.85.22-11.75-.03-4.66-.3-6.29-2.32-5.95-6.98.58-7.81,1.29-15.61,1.93-23.41.12-1.42.21-2.84.25-4.27.33-13.18-1.21-14.13,13.53-12.72ZM1238.59,1836.96v-9.09c3.36,1.3,4.48,3.96,4.66,6.69.17,2.63-1.63,3.67-4.66,2.4ZM1242.1,1812.72h-9.61q4.03-2.62,9.61,0ZM1228.88,1838.03c-.63-.47-1.12-1.79-.93-2.53.19-.75,1.3-1.27,2.31-2.14.64,1.19,1.39,2,1.46,2.87.12,1.48-1.7,2.65-2.83,1.81ZM1323.84,2318.66h-4.53c0-.1,0-.2,0-.3h4.53c0,.1,0,.2,0,.3ZM1368.41,2297.27c-45.36,5.78-91.01,7.96-136.62,10.56,46.3-5.34,92.69-9.58,139.32-11.97-.9.49-1.75,1.29-2.7,1.41ZM1387.12,2310.62c-.2,0-.56-.72-.53-.74.43-.37.9-.67,1.37-.99.31.51.62,1.01.93,1.51-.59.09-1.18.25-1.76.22ZM1398.22,2295.64c-2.03.42-4.19.62-6.24.41-3.12-.32-5.22-2.67-4.63-4.67.53-1.78,1.53-2.17,6.75-2.07.69.2,2.76.6,4.61,1.45.71.33,1.34,1.75,1.25,2.6-.08.84-1,2.12-1.74,2.28ZM1399.84,2166.53c4.75.72,7.74,3.72,6.94,7.54-.3,1.45-1.75,3.15-3.11,3.76-1.84.83-4.1.73-5.52.94-1.38-.08-2.08-.08-2.78-.17-3.86-.5-6.03-3.83-5.02-7.67.94-3.56,4.42-5.17,9.48-4.4ZM1393.55,2150.32c.26-.89.26-2.17.9-2.86,1.1-1.18,2.63-2.81,3.91-2.75,1.3.06,2.99,1.7,3.65,3.06.7,1.46.65,3.43.47,5.12-.28,2.59-2.89,4.57-5.21,4.16-2.45-.43-3.4-2.25-3.71-4.5-.09-.69-.01-1.4-.01-2.24ZM1406.69,2197.95c-2.75.7-5.6,1-6.53,1.16-2.64,0-3.36.04-4.07,0-2.28-.16-4.2-.99-5.08-3.27-1.01-2.61.06-6.35,2.63-7.43,2.9-1.23,6.06-2.14,9.19-2.48,3.46-.38,5.95,1.81,7.15,5.28,1.08,3.12-.16,5.95-3.29,6.75ZM1411.21,2208.63c.11.76-.78,2.17-1.55,2.48-2.25.9-4.65,1.39-7.12,2.08-2.81-.84-5.55-1.5-8.14-2.52-.75-.3-1.66-1.74-1.51-2.45.25-1.2,1.05-2.85,2.04-3.25,4.78-1.9,9.73-1.84,14.44.25.97.43,1.66,2.17,1.84,3.41ZM1405.73,2280.68c-.3,2.28-2.23,2.76-3.98,2.45-3.1-.54-6.19-1.32-9.13-2.43-.99-.37-2.24-2.24-2.02-3.08.26-1.01,1.9-1.75,3.05-2.41.56-.32,1.38-.2,2.74-.35,1.77.51,4.18,1.06,6.48,1.92,1.68.63,3.14,1.82,2.86,3.9ZM1406.37,2265.45c-.43,1.47-1.69,3.49-2.94,3.79-4.27,1.02-8.42.04-12.07-2.52-1.23-.87-1.22-4.1.15-4.69,2.2-.94,4.57-1.5,6-1.94,2.81.54,4.62.68,6.27,1.26,1.8.64,3.12,2.24,2.58,4.1ZM1404.89,2254.17c-1.52.79-3.37.94-4.84,1.31-1.34-.22-2.45-.22-3.42-.59-1.99-.75-3.99-1.61-4.17-4.21-.13-1.89,1.62-3.71,4.3-3.73,2.76-.03,5.6.3,8.26,1.01.99.27,2.15,2.08,2.15,3.18,0,1.04-1.22,2.48-2.28,3.03ZM1407.71,2240.16c-4.77,2.73-9.46,1.7-13.7-1.31-.87-.62-1.23-2.44-1.18-3.68.03-.72,1.27-1.78,2.13-1.98,2.02-.47,4.14-.51,6.34-.74,1.97.35,4.14.43,6.03,1.2,1.03.42,2.14,1.99,2.19,3.09.05,1.14-.83,2.86-1.82,3.42ZM1408.68,2225.47c-4.99,2.99-10.15,2.34-15.06-.41-1.71-.96-2.34-2.84-1.55-4.56.51-1.1,1.85-2.3,3-2.53,2.03-.41,4.2-.11,8.7-.11-.27-.02,1.85,0,3.94.28,1.81.25,3.77,1.12,3.55,3.13-.16,1.5-1.3,3.42-2.58,4.19ZM1508.79,2133.56c-20.93,12.71-44.22,22.22-56.33,21.4,17.72-9.24,35.64-18.13,53.12-27.8,17.51-9.68,34.6-20.14,52.11-30.39-6,8.61-20.94,19.82-48.9,36.8ZM1608.37,1590.43c-12.01,6.33-23.97,12.76-36.14,18.75-14.75,7.25-29.7,14.11-44.56,21.13-20.37,9.62-41.14,18.26-62.16,26.38-25,9.66-49.67,20.19-74.52,30.25-10.6,4.29-21.23,8.54-31.97,12.46-17.5,6.38-34.36,14.14-51.07,22.33-3.46,1.7-6.81,4.01-13.09,3.88,1.49-2.27,1.97-3.65,2.94-4.35,2.89-2.09,5.84-4.2,9.02-5.78,12.48-6.2,24.83-12.72,37.64-18.18,44.72-19.06,89.6-37.73,134.42-56.53,1.65-.69,3.32-1.31,4.99-1.95,15.36-5.85,30.67-11.85,46.11-17.5,21.51-7.88,41.97-18.16,63-27.14,5.9-2.52,11.84-4.93,18.14-7.54.47,2.8-1.57,3.16-2.74,3.78ZM1603.09,1578.46c-19.48,8.96-38.31,19.31-58.4,27-13.34,5.1-26.27,11.3-39.39,16.97-2.19.95-4.46,1.71-6.7,2.57,8.54-16.18,16.98-31.45,25.19-46.86,9.42-17.67,18.98-35.27,28.29-53,3.48-6.64,6.52-13.52,9.57-20.38,3.78-8.49,7.53-17.01,10.99-25.64,3.59-8.95,7.2-17.93,10.13-27.11,3.92-12.28,8.4-24.3,13.71-36.04,1.45-3.2,2.27-6.75,2.92-10.23,2.95-15.82,5.77-31.66,8.55-47.51.74-4.22,1.18-8.5,1.69-12.76,1.15-9.72,4.53-22.02,9.03-32.33,1.79,2.52.93,4.95.62,7.15-4.25,30.09-8.86,60.14-12.8,90.27-2.74,20.93-3.89,41.93-2.49,63.14,1.91,28.93,5.03,57.7,8.8,86.43,1.58,12.02,1.29,13.28-9.7,18.33ZM1643.43,2035.71c-.19-.2-.38-.4-.56-.6.49-.39.97-.79,1.49-1.14.04-.02.36.38.54.58-.49.39-.98.77-1.47,1.16Z"/>
            <path class="cls-2" d="M1843.63,2332.49c-4.17-2.71-8.89-2.32-13.52-2.29-16.79.11-33.58.3-50.37.39-1.26,0-2.53-.48-5.19-1.02,2.47-2.22,3.76-3.87,5.44-4.82,10.54-6.01,21.1-11.98,31.78-17.73,10.05-5.41,20.26-10.53,30.4-15.77,3.33-1.72,5.87-.43,5.65,3.32-.46,7.73,1.74,14.84,4.35,21.89.41,1.09,1.56,1.91,4.03,4.79-.55-4.48-.52-6.54-1.08-8.42-2.07-6.98-2.11-14.07-1.73-21.24.18-3.35,1.11-6.27,3.03-8.97,4.75-6.69,9.82-13.2,14.07-20.2,3.24-5.33,7.49-7.3,13.36-6.7,1.38.14,2.76.3,4.74.52.22,1.84.89,3.61.54,5.15-5.37,24.17-12.55,47.67-26.29,68.64-.58.89-1.36,1.66-2.04,2.48h-17.19Z"/>
            <path class="cls-2" d="M1663.16,2332.49c.39-2.09.77-4.02,2.89-5.36,24.36-15.45,48.22-31.76,75.16-42.67,3.96-1.6,7.87-3.38,11.91-4.72,2.23-.74,4.71-.72,7.9-1.16-.46,2.18-.53,3.54-1.04,4.71-5.04,11.83-8.91,24.02-12.09,36.48-1.13,4.4-3.46,8.49-5.24,12.72h-79.49Z"/>
            <path class="cls-2" d="M1718.75,893.72c5.7-2.28,9.56-3.97,13.53-5.36,4.02-1.41,8.18-2.18,15.13-1.5-17.93,3.85-30.47,12.12-41.47,23.05-4.32,4.29-8.71,8.5-13.25,12.55-1.76,1.57-4.03,2.59-6.51,4.13-1.78-2.49-3.1-4.53-4.61-6.42-2.15-2.7-5.04-3.1-7.36-.57-3.13,3.41-6.25,6.96-8.6,10.91-13.14,22.07-21.93,45.84-26.13,71.15-1.51,9.08-2.16,18.43-2,27.64.33,18.78-2.15,37.05-6.96,55.19-4.67,17.62-9.95,35.12-12.67,53.23-.46,3.06-2.08,6.03-3.61,8.8-1.01,1.82-2.77,3.52-5.24,3.01-2.53-.52-3.33-2.75-3.29-4.91.1-4.62.02-9.34,1-13.81,2.06-9.43,4.63-18.76,7.2-28.07,3.27-11.82,4.89-23.83,4.7-36.08-.3-18.65-1.87-37.1-6.39-55.32-6.81-27.46-11.73-55.3-15.72-83.32-2.12-14.87-5.1-29.62-8.12-44.34-3.13-15.3-9.91-29.12-18.83-41.82-3.05-4.34-6.8-8.35-10.82-11.82-7.31-6.3-14.96-12.23-22.67-18.05-8.33-6.28-15.94-13.24-22.79-21.11-8.93-10.28-14.15-22.25-17.1-35.38-2.42-10.77-1.07-21.3,1.51-31.85,2.9-11.81,5.5-23.69,8.22-35.54.24-1.04.33-2.12.52-3.18,6.85-37.66-17.6-74.16-42.51-87.15-8.24-4.3-16.59-8.43-25.11-12.13-15.75-6.84-31.68-13.3-47.52-19.95-2.28-.96-4.47-2.11-6.68-3.16-1.01-5.18-1.96-10.03-2.87-14.7,2.44-4,6.41-5.1,9.92-6.64,9.25-4.05,17.54-9.57,25.77-15.34,16.38-11.48,32.95-22.7,49.47-34.05-1.57-1.57-3.62-.07-5.32.46-21.68,6.77-42.01,16.22-60.05,30.3-5.92,4.62-12.21,8.77-18.44,12.96-3.88,2.6-7.92,4.56-12.99,4.13-3.11-.26-6.35.82-9.51,1.37-2.54.44-5.11.71-7.1-1.26-2.59-2.56-5.57-2.4-8.92-2.35-9.44.15-18.42-2-26.19-7.6-3.1-2.23-6.06-3.74-9.89-2.49-3.29,1.08-6.19,0-9.31-1.13-4.32-1.55-8.9-2.46-13.42-3.36-2.79-.56-5.81-.19-8.5-.99-4.35-1.3-8.36-1.42-12.45.75-3.4,1.8-6.82,1.7-10.23-.31-1.52-.89-3.25-1.79-4.95-1.93-3.85-.32-6.73-2.05-8.54-5.61-9.08,3.3-18.5-.9-27.05,4.46-9.61-5.95-20.64-4.76-31.17-6.1-8.46-1.07-16.59.28-21.86,8.23-2.8-.82-4.77-1.65-6.81-1.94-3.14-.44-6.35-.8-9.51-.67-2.73.12-4.36,2.46-4.17,5.28.1,1.42.6,2.8.77,4.21.17,1.39.15,2.8.19,3.68-3.62,3.15-6.89,5.83-9.96,8.72-2.26,2.13-4.89,2.77-7.84,2.88-5.7.2-11.39.48-17.34.74-.86,2.04-1.67,3.96-2.49,5.91-3.74,2.96-7.61-.48-11.81.28-2.08,1.69-1,7.09-6.18,6.4-.42-.06-1.21,2.73-2.14,4.93-6.25-.27-12.94-.55-19.49-.83-1.6,2.76.74,3.14,1.91,4.19.97.87,1.81,1.88,3.38,3.53-2.24.71-3.49,1.3-4.8,1.5-10.26,1.53-20.53,2.92-30.78,4.51-2.45.38-4.82,1.28-7.21,1.99-5.12,1.52-10.24,3.04-15.34,4.63-3.05.95-6.55,1.35-9,3.15-8.54,6.24-18.35,9.39-28.07,12.98-10.39,3.84-20.05,9.22-29.17,15.56-5.27,3.67-10.24,7.86-16.71,9.44-1.34.33-2.77,1.03-3.77,1.97-11.62,10.97-24.52,20.4-31.84,35.68-12.43,25.95-22.66,52.34-28.3,80.73-8.01,40.29-10.09,80.88-9.29,121.74.2,10,1.27,19.98.95,30.06-.07-1.64-.06-3.28-.22-4.9-.22-2.13-.49-4.26-.91-6.35-.42-2.1-1.29-4.12-1.57-6.23-.65-4.95-1.24-9.93-1.54-14.91-.34-5.71-.26-11.45-.49-17.17-1.01-25.06-.79-50.03,3.49-74.86,2-11.61,3.37-23.32,5.03-34.99.1-.71.26-1.41.33-2.12.41-4.06-2.85-8.04.64-12.35,2.34-2.89.35-7.53,2.9-11.1,1.86-2.61-.92-6.52,2.23-9.86,1.96-2.07.01-6.88,2.99-9.57-4.07-4.79,4.51-8.71.99-13.58-.27-.37.86-1.73,1.31-2.65.74-1.52,2.28-3.21,2.03-4.56-.94-5.14,1.91-9.51,2.43-14.35.43-4.02,2.19-7.92,3.52-11.82,1.36-4.01,4.28-8.03,4.06-11.91-.34-6.14,5.15-9.15,5.81-14.39,6.05-6.33,8.61-14.71,12.41-22.25,6.09-12.09,12.85-23.71,20.19-35.05,3.1-4.79,6.53-9.42,9.07-14.48,5.97-11.89,13.48-22.73,22.04-32.81,4.85-5.71,10.53-10.71,15.81-16.07,18.66-18.94,38.73-36.22,61.63-49.82,18.75-11.13,36.74-23.52,56.66-32.75,21.47-9.95,43.45-18.5,65.61-26.69,17.48-6.46,35.06-12.53,53.31-16.42,46.13-9.83,92.55-14.29,139.72-8.8,42.9,4.99,84.47,14.87,124.9,30.11,29.19,11,57.7,23.4,85.12,38.21,17.03,9.2,32.65,20.64,48.06,32.32,6.56,4.97,13.13,9.92,19.79,14.76,2.94,2.13,5.61,4.34,7.1,7.81.83,1.94,2.01,3.85,3.45,5.39,6.82,7.31,13.7,14.57,20.71,21.7,10.56,10.74,20.35,22.07,27.66,35.35.35.63.7,1.25,1.01,1.89,2.34,4.79,8.63,6.77,9.16,12.83.45,5.18,3.52,9.25,5.5,13.81,3.38,7.82,5.89,16.02,8.81,24.04,3.78,10.35,5.82,21.21,8.87,31.77,1.91,6.62,4.84,13.27,4.45,20.65-.2,3.76,1.54,7.6,2.24,11.44,4.84,26.54,4.91,53.33,4.04,80.15-.87,26.83-1.87,53.65-2.99,80.47-.75,17.88-1.73,35.75-2.77,53.62-.21,3.54-1.18,7.04-1.68,10.57-.24,1.68-.2,3.41-.39,7.09ZM1705.56,878.7c.47-20.75-3.34-40.42-13.98-58.67-7.29-12.51-10.66-13.1-19.57-1.58-2.76,3.57-2.73,7.09-.92,11.02,1.78,3.86,3.83,7.74,4.74,11.84,1.59,7.2,4.3,13.61,9.65,18.77,3.71,3.58,5.96,7.99,7.33,12.91.48,1.72.87,3.5,1.58,5.12,2.53,5.74,3.4,11.61,2.17,17.81-.34,1.71-.19,3.54-.06,5.31.13,1.73,2.78,2.65,4.25,1.64,3.22-2.22,4.63-5.45,4.77-9.16.19-5,.05-10.01.05-15.02ZM1518.91,700.58c2.33,0,3.41.15,4.44-.02,11.99-1.98,12.69-1.62,17.7,9.45.15.32.26.66.4.99,1.41,3.23,3.99,4.88,7.36,5.52,4.62.87,7.92-1.11,8.58-5.69,1.29-8.88.93-17.08-8.69-21.92-7.2-3.63-10.58-10.33-12.3-17.92-.47-2.08-.86-4.2-1.03-6.33-.33-4.16-2.19-7.43-5.29-10.14-1.61-1.4-2.99-3.05-4.55-4.52-2-1.89-3.78-4.96-7.11-3.07-2.59,1.47-1.94,4.41-1.58,6.82,1.62,10.65,1.83,21.28.42,31.97-.41,3.15-.26,6.42-.02,9.6.12,1.66,1,3.27,1.65,5.26ZM1676.87,886.66c-.5-.28-1.01-.56-1.51-.84-.28.53-.83,1.1-.76,1.58.05.34.92.57,1.43.85.28-.53.56-1.05.84-1.59Z"/>
            <path class="cls-2" d="M1503.85,910.44c-1.47,0-2.59.31-3.41-.06-2.93-1.3-6.05-2.45-8.59-4.33-12.5-9.25-26.79-15.02-40.82-21.28-13.12-5.85-26.85-9.78-41.19-11.42-9.22-1.05-18.33-3.29-27.72-2.19-7.89-3.88-13.08,1.18-19.18,5.03-8.43,5.32-17.56,9.53-26.48,14.04-14.07,7.12-27.38,15.45-39.83,25.1-3.94,3.05-7.22,6.95-11.09,10.09-10.54,8.56-21.18,17.02-31.94,25.31-2.8,2.15-6.12,3.68-9.33,5.23-11.16,5.4-20.59,12.75-27.76,23-3.07,4.38-6.59,8.48-10.25,12.38-1.62,1.73-4.01,2.85-6.22,3.91-1.6.77-3.88-.65-4.14-2.33-.17-1.05-.29-2.15-.18-3.19.55-4.96-1.04-9.17-4.35-12.78-4.64-5.05-4.21-10.19-.62-15.61,3.17-4.79,6.27-9.56,11.37-12.63,1.39-.84,2.45-2.23,5.47-5.06-6.18,1.2-9.94,1.94-13.7,2.65-2.83.53-4.99-.61-6.19-3.1-1.07-2.24-2.14-4.59-2.56-7-1.59-9.02-.18-17.83,2.8-26.37,1.87-5.37,5.88-8.81,11.22-10.79,8.71-3.23,17.26-6.96,26.11-9.75,30-9.46,60.05-18.77,90.18-27.81,16.77-5.03,33.72-9.41,50.61-14.04,9.74-2.67,19.28-3.14,29.54-1.31,43.02,7.7,77.8,29.28,106.91,61.05.63.68.77,1.81,1.35,3.25ZM1375.49,858.13c-5.88-4.77-11.15-5.48-16.84-3.74-.84.26-2.04,1.39-1.99,2.04.08,1.24.67,2.73,1.56,3.54.95.87,2.53,1.56,3.8,1.5,4.13-.19,8.31-.49,13.47-3.35Z"/>
            <path class="cls-2" d="M1326.65,1022.39c-4.7-.11-8.36-2.45-10.73-6.18-2.66-4.17-4.78-8.72-6.77-13.27-1.11-2.54-1.49-5.4-2.26-8.33-4.53-.81-8.05,1.28-11.41,2.94-3.46,1.7-6.81,3.96-9.61,6.61-7.5,7.11-14.41,14.85-22.99,19.85-1.83,4.5,2.62,5.96,3.59,9.52-1.86,1.02-3.6,1.98-5.92,3.26-.89-2.76-1.59-4.96-2.4-7.48-5.02-1.25-7.91,1.75-10.58,5.23-1.27,1.65-2.45,3.37-3.83,4.9-.31.34-1.46.25-1.99-.05-.51-.29-1.11-1.2-1-1.69.46-2.06.9-4.2,1.85-6.06,2.77-5.41,5.81-10.67,8.68-16.03,1.68-3.15,3.42-6.3,4.72-9.61.38-.97-.28-3.01-1.14-3.61-.89-.63-3.02-.67-3.85-.02-2.77,2.2-5.3,4.73-7.71,7.32-2.88,3.1-5.53,6.4-8.1,9.4-3.12-1.07-2.9-3.11-2.1-4.6,2.53-4.72,5.34-9.29,8.1-13.88,11.54-19.16,27.13-33.74,47.26-43.91,7.45-3.76,15.1-6.76,22.99-7.58,8.27-.86,16.09-4.66,24.58-3.55,4.49-2.16,9.34-2.26,14.18-2.54,1-.06,2.29-1.31,2.91-.98,7.63,3.98,11.15-.74,14.35-6.45.25-.45,1.24-.49,2.48-.93.83,2.58,1.65,5.15,2.43,7.56.85.39,1.53,1,2.11.92,3.15-.45,6.27-1.08,9.61-1.68.99,1.63,1.91,3.15,2.88,4.74,2.6-1.4,4.18-2.15,5.65-3.06,4.35-2.72,8.3-3.59,12.42.83,1.8,1.94,4.82,2.74,7.33,4.09,2.96-.52,6.05-1.06,9.6-1.69,3.51,7.93,11.1,9.63,17.95,12.5.82,2.02,1.59,3.94,2.34,5.76,1.92.16,3.63.3,5.66.47v7.09c1.87-.29,3.52-.72,5.19-.75,2.56-.06,4.31,2.06,3.35,4.09-1.21,2.54-2.74,4.92-4.43,7.87,3.15,1.94,5.43-1.09,7.92-.95.98.05,2.71.57,2.74.98.09,1.21-.09,3.01-.89,3.62-2.76,2.1-5.84,3.8-8.43,6.81,2.93-.4,5.85-.81,9.09-1.25,1.54,9.35-7.15,7.7-11.27,11.9,3.78.56,7.01,1.04,11.13,1.66-5.02,5.76-11.14,4.35-17.52,5.23,1.94,2.45,3.36,4.23,4.74,5.97-4.5,4.8-9.43,9.17-13.19,14.38-3,4.15-6.28,5.38-10.93,4.64-1.38-.22-2.81-.03-4.87-.03-.56,1.44-1.15,2.99-1.76,4.58-6.2,2.45-13.45-2.72-19.3,3.29-2.28-2.46-4.02-4.73-6.16-6.5-1.23-1.02-3.38-2.07-4.66-1.66-2.13.67-1.37,2.88-.68,4.53,1.2,2.88,2.83,5.66,1.85,9.79-2.41-3.48-4.29-6.48-6.46-9.25-2.14-2.73-4.58-5.22-6.97-7.91.76-1.13,1.54-2.29,2.39-3.56-1.47-.76-2.92-1.52-5.11-2.65,8.74-5.67,18.85-7.98,26.12-15.43-.72-3.49-4.44-1.07-6.89-3.85-1.9-4.88-5.38-10.12-12.71-12.48-1.23,2.19-2.68,4.17-3.51,6.37-2.19,5.77-5.65,10.71-9.28,15.61-2.49,3.35-5.59,5.48-9.63,6.26-8.8,1.69-17.67,2.75-26.66,2.17-2.34-.15-4.04-1.28-4.81-3.6,3.83.41,7.85,1.74,11.49,1.05,6.95-1.31,13.77-3.53,20.46-5.87,2.55-.89,4.86-2.95,6.79-4.94.92-.94.72-2.98,1.13-5.03-8.54-.68-16.17-2.24-24.07-1.65-3.42.26-6.98-.75-10.43-1.41-2.78-.53-5.45-1.69-8.24-2.05-3.41-.44-6.35,2.65-5.7,6.06.45,2.37,1.42,4.79,2.75,6.8,1.75,2.65,4.08,4.91,6.16,7.34ZM1264.79,980.1c2.91,1.07,5.8,2.2,8.75,3.17,1.14.38,2.57-1.6,2.16-2.84-1.52-4.56-4.84-5.52-8.6-2.42-.79.65-1.39,1.55-2.01,2.4-1.19,1.25-2.38,2.5-3.56,3.75q3.2,3.19,7.04,3.57c-1.3-2.64-2.53-5.13-3.77-7.63ZM1296.22,958.96c-2.85,1.95-4.91,3.12-6.68,4.63-1.43,1.22-1.73,2.96-.62,4.67,1.1,1.68,2.71,1.98,4.55,1.59,4.46-.94,5.09-2.86,2.74-10.9ZM1308.35,966.94c.58-.34,1.37-.55,1.72-1.05,1.53-2.16,1.5-5.77-.39-7.67-.79-.79-2.51-1.13-3.71-.95-2.29.33-3.48,2.39-3.12,4.61.55,3.32,2.9,5.49,5.49,5.06ZM1263.65,995.1c-.14-.67-.11-1.46-.46-2-1.23-1.89-3.13-3.32-5.22-2.14-1.64.92-2.75,2.87-3.93,4.49-.18.25.38,1.37.87,1.71,2.34,1.64,5.61,1.51,7.73-.27.49-.41.68-1.18,1-1.78ZM1276.38,973.47c1.24,1.28,2.25,2.74,3.63,3.64,2.58,1.68,4.85.44,5.25-2.69.28-2.16.39-4.69-2.1-5.34-1.37-.36-3.26.71-4.72,1.5-.8.43-1.2,1.62-2.06,2.89ZM1347.69,951.74c-2.7-1.68-5.49-.61-8.04.33-.79.29-1.5,2.48-1.27,3.59.62,2.97,4.57,4.43,6.71,2.58,1.86-1.61,3.58-3.5,2.6-6.49ZM1332.79,956.52c-.34-1.16-.39-2.3-.75-2.41-1.56-.48-3.34-1.17-4.81-.82-2.48.59-3,3.05-1.78,6.21.71,1.84,1.96,2.97,4.01,2.69.62-.08,1.42-.62,1.68-1.17.73-1.57,1.21-3.25,1.66-4.49ZM1353.01,959.67c1.34-.47,2.67-.87,3.93-1.42.97-.42,2.04-.88,2.7-1.63.62-.71,1.19-1.95.99-2.76-.2-.81-1.29-1.8-2.14-1.97-5.08-1.05-6.99,1.54-5.48,7.79ZM1318.22,964.93c2.43-2.04,2.9-4.73,2.58-7.43-.13-1.09-1.39-2.62-2.41-2.88-1.77-.45-3.43.64-3.87,2.55-.78,3.36.22,6.03,3.71,7.77ZM1374.52,958.36c.47-2.65-.8-3.26-2.23-3.62-2.2-.56-4.64.64-4,1.88.72,1.4,2.11,2.73,3.54,3.35.65.28,2.07-1.21,2.7-1.61ZM1382.15,958.51c-.72.76-1.53,1.35-1.89,2.14-.16.35.57,1.12.89,1.69.74-.57,1.6-1.05,2.15-1.77.15-.2-.59-1.09-1.16-2.06ZM1346.48,986.04c-1.07-1.36-1.59-2.6-2.17-2.63-1.17-.07-2.38.53-3.57.85.58,1.03.95,2.6,1.81,2.93.85.33,2.19-.58,3.93-1.14ZM1395.73,946.39l-.39.53.59.1-.21-.63Z"/>
            <path class="cls-2" d="M1780.56,1000.26c-.5-2.41-1.04-4.81-1.5-7.22-1.44-7.51-4.88-14.16-8.8-20.62-1.8-2.97-4.19-4.83-7.7-5.08-3.29-.24-6.5-.31-8.61,2.97-.34.52-1.09.77-2.32,1.6-.58-2.98-1.15-5.64-1.61-8.33-.55-3.16-.64-6.45-1.58-9.48-1.47-4.72-6.17-6.6-10.29-3.79-3.47,2.36-7.3,5.23-9.06,8.81-3.42,6.99-6.72,14.46-7.8,22.05-1.09,7.68-5.21,11.71-11.32,14.15-4.92,1.97-10.37,2.62-15.63,3.67-2.08.41-4.39-1.56-4.2-3.85.4-4.95.75-10,2.03-14.77,2.52-9.38,7.02-17.99,11.86-26.37,7.34-12.72,14.86-25.35,25.28-35.88,3.51-3.54,7.31-6.9,11.4-9.73,8.31-5.74,15.55-5.4,23.82.51,5.08,3.63,8.62,8.52,11.39,14.03,9.39,18.75,12.92,38.56,10.63,59.39-.47,4.27-.96,8.54-1.73,12.76-.35,1.95-1.39,3.78-2.12,5.67-.71-.16-1.42-.33-2.13-.49Z"/>
            <path class="cls-2" d="M1669.63,1043.8c3.97-2.79,6.68-4.44,9.09-6.44,2.9-2.4,3.08-5.48.7-8.5-1.1-1.39-2.62-2.46-3.69-3.88-2.92-3.9-4.04-8.41-3.22-13.15.26-1.48,1.69-3.23,3.06-3.91,1.84-.91,3.35.59,4.22,2.3.95,1.88,1.76,3.84,2.87,6.29,1.82-.33,3.48-.61,5.12-.93,1.39-.28,2.83-1.03,4.15-.85,9.92,1.33,20.18,2.3,28.52,8.28,8.8,6.32,16.04,14.45,19.42,25.02,2.16,6.77,3.4,13.86,4.63,20.88.53,3.04.9,6.41-1.34,9.12-2.24,1.07-3.54-.38-4.68-1.69-5.83-6.68-12.86-11.15-21.67-12.91-3.47-.69-6.75-2.31-10.1-3.58-4.05-1.54-8.1-2.86-12.51-1.47-2.67.84-5.15.04-6.82-1.99-4.4-5.37-10.46-8.44-17.77-12.58Z"/>
            <path class="cls-2" d="M1612.96,1232.37c-.32-1.52-.88-2.77-.77-3.96.39-4.27.82-8.56,1.59-12.78,3.75-20.78,6.76-41.67,8.79-62.69.62-6.45,3.14-11.68,8.17-15.67.75-.59,1.9-.68,3.65-1.26.26,1.99.9,3.69.6,5.2-1.17,5.96-2.53,11.89-4.01,17.79-2.25,9.02-4.62,18.02-7.02,27-1.06,3.96-.8,7.64.73,11.51.85,2.15,1.14,5.06.4,7.2-3.02,8.79-6.51,17.41-9.91,26.07-.2.51-1.05.77-2.24,1.58Z"/>
            <path class="cls-2" d="M1665.42,1183.27c-.96-.06-2.18.2-3-.26-5.64-3.11-11.45-5.48-17.99-6.12-3.27-.32-4.59-3.65-2.77-6.49,1.71-2.67,3.77-5.14,5.92-7.48,2.16-2.36,4.97-2.96,7.68-1.04,7.53,5.34,15.36,4.39,23.39,1.5,1.56-.56,3.24-.81,6.52-1.61-1.67,2.47-2.19,3.75-3.14,4.53-1.92,1.56-4.06,2.85-6.12,4.24q-7.09,4.81-10.49,12.73Z"/>
            <path class="cls-2" d="M1681.92,1099.11c-.91,3.37-1.68,6.78-2.75,10.09-1.31,4.08-2.89,8.07-4.29,12.12-.7,2.02-1.4,4.06-1.83,6.15-1.41,6.92,1.65,9.71,8.14,7.43,2.6-.91,5.1-2.09,9.35-3.87-6.72,9.71-14.35,14-24.21,14.29-3.94.11-6.04-2.21-5.49-6.07.98-6.86,4.29-12.83,7.56-18.77,3.95-7.18,8.02-14.3,12.04-21.45.49.02.99.05,1.48.07Z"/>
            <path class="cls-2" d="M1724.85,1158.46c-.62-9.52.95-16.33,7.73-21.34,6.62-4.9,12.49-10.6,17.39-17.29.77-1.06,2.06-1.74,2.95-2.46,2.22,1.13,1.83,2.69,1.14,3.81-2.78,4.55-5.49,9.18-8.69,13.43-5.36,7.11-11.05,13.98-16.66,20.9-.63.78-1.62,1.26-3.86,2.95Z"/>
            <path class="cls-2" d="M1756.69,996.19c.76,1.58,1.56,3.13,2.26,4.72,1.87,4.21,3.3,8.66,5.62,12.6,4.67,7.92,5.12,16.07,2.54,24.63-.06.21-.6.27-1.46.63-2.59-2.98-3-6.98-3.8-10.62-1.97-9.04-3.31-18.22-7.07-26.81-.67-1.54-1.93-4.21,1.9-5.14Z"/>
            <path class="cls-2" d="M1366.12,1365.33c-3.26-4.99-5.97-9.5-9.04-13.73-3.06-4.22-8.19-6.81-10.3-12.56,1.35-.3,2.47-.94,3.09-.62,6.46,3.38,11.34,8.51,15.05,14.67,2.18,3.63,3.05,7.62,1.19,12.23Z"/>
            <path class="cls-2" d="M1135.03,1501.05c7.45-4.93,21.96-7.24,35.17-5.79-12.49,3.85-23.96,3.66-35.17,5.79Z"/>
            <path class="cls-2" d="M993.65,1078.88c-6.79,3.97-6.75,3.99-11.78,12.59-1.05,1.8-2.46,3.42-3.87,4.97-.31.34-1.44.27-1.96-.02-.53-.29-1.21-1.23-1.08-1.65,1.53-4.85,4.36-8.94,8.22-12.14,2.89-2.4,5.89-5.25,10.48-3.75Z"/>
            <path class="cls-2" d="M1386.3,1345.97c-2.39-3.99-6.39-6.73-7.31-11.14,2.04-2.17,3.54-1.13,4.77.12,3.91,4,4.14,4.95,2.54,11.02Z"/>
            <path class="cls-2" d="M1367.06,1045.89c-5.46-3.62-8.84-6.65-10.03-12.22,7.08,2.51,8.73,4.39,10.03,12.22Z"/>
            <path class="cls-2" d="M1351.67,1041.94c-5.62,1.53-7.61-.11-8.92-3.55,1.05-.28,1.83-.76,2.23-.55,1.79.95,3.48,2.1,6.68,4.1Z"/>
            <path class="cls-2" d="M1306,1037.92c.78,4.84-1.32,7.54-5.27,12.23.88-5.93.87-9.47,5.27-12.23Z"/>
            <path class="cls-2" d="M1274.8,1029.37c.53.23,1.06.46,1.59.69-.39.44-.72,1.13-1.19,1.24-.44.11-1.02-.4-1.55-.64.38-.43.76-.86,1.14-1.29Z"/>
            <path class="cls-2" d="M1327.11,1047.41c-.46.49-.89.95-1.32,1.41-.37-.73-.74-1.45-1.1-2.18.57-.28,1.14-.56,1.71-.83.25.56.5,1.12.72,1.6Z"/>
            <path class="cls-2" d="M1372.89,1036.25c-.66.76-1.08,1.6-1.45,1.58-.62-.03-1.36-.49-1.74-1-.2-.27.23-1.03.38-1.56.89.31,1.77.62,2.8.99Z"/>
            <path class="cls-2" d="M1679.75,1196.87s-.04.04-.04.04"/>
            <path class="cls-2" d="M1349.95,1048.92c-.57.06-1.14.15-1.71.14-.07,0-.13-.55-.2-.84.55-.06,1.1-.16,1.65-.14.1,0,.17.54.26.84Z"/>
            <path class="cls-2" d="M873.76,1018.91s.04.05.05.11c-.01.03-.05-.11-.05-.11Z"/>
            <path class="cls-2" d="M1654.38,2314.29c-1.2-3.47-2.3-5.7-2.72-8.05-3.26-18.25-2.66-36.34,3.7-53.87,1.92-5.29,5.18-10.11,8.01-15.04.64-1.11,2.07-1.76,3.08-2.57,7.03,6.19,7.01,6.69,16.29,6.95,13.91.39,27.85.16,41.77-.08,10.71-.18,21.42-.83,32.13-1.14,3.2-.09,6.44.06,9.6.55,1.12.17,2.6,1.52,2.88,2.6.29,1.12-.29,3.15-1.18,3.77-3.19,2.19-6.53,4.33-10.09,5.81-9.89,4.1-19.97,7.74-29.9,11.76-22.09,8.93-41.7,21.78-59.34,37.75-4.16,3.77-7.74,8.32-14.22,11.57Z"/>
            <path class="cls-2" d="M1788.75,2182.86c-.6,6.45-7.3,28.97-11.22,37.48-28.39,1.78-57.23,2-86.06,2.71-2.74.07-5.5-.35-7.9-.51-1.3-2.8.09-4.19,1.52-5.12,6.57-4.27,12.91-9.08,19.94-12.41,21.35-10.12,43.57-17.86,66.99-21.68,5.52-.9,11.12-2.69,16.74-.47Z"/>
            <path class="cls-2" d="M1825.5,2186.94c2.84.31,5.04.15,6.95.82,15.09,5.27,28.36,13.38,38.82,25.66,3.74,4.39,6.59,9.33,8.29,14.86.68,2.21-.85,4.31-3.23,4.51-1.42.12-2.86.17-4.27.04-16-1.45-32-2.88-47.98-4.47-3.1-.31-6.13-1.32-9.11-1.99-.26-1.67-.77-2.78-.53-3.7,3.02-11.71,6.1-23.41,11.07-35.73Z"/>
            <path class="cls-2" d="M1796.37,2289.76c4.09-14.71,7.58-27.27,10.95-39.43,9.73-2.58,27.6-1.64,38.77,1.85-.14.95.08,2.28-.48,2.89-12.26,13.14-26.07,24.31-42.11,32.55-1.49.76-3.25,1-7.12,2.14Z"/>
            <path class="cls-2" d="M842.48,1986.28c-8.55-.18-15.63-7.6-14.9-16.11.19-2.27,1.53-4.72,3.02-6.52,2.26-2.74,6.14-2.47,8.38.25,1.12,1.36,1.81,3.07,2.89,4.47,2.28,2.94,3.22,3.16,7.98,1.05,2.55-1.13,4.09-.27,5.33,1.7,2.35,3.71,2.12,6.59-.47,9.77-3.16,3.89-7.3,5.52-12.23,5.4Z"/>
            <path class="cls-2" d="M1261.21,1938.16c-.17,3.38-.13,5.89-.45,8.36-.53,4.05-2.57,5.88-6.23,5.96-4.43.09-7.04-1.55-7.95-5.52-.79-3.47-1.24-7.02-1.66-10.56-.38-3.18-.69-6.39-.71-9.59-.02-2.85,1.76-4.56,4.68-4.79,1.76-.14,3.56-.07,5.33.08,3.23.27,5.38,2.11,5.88,5.26.62,3.86.82,7.78,1.11,10.81Z"/>
          </g>
          <path class="cls-2" d="M1640.62,2035.09c.76,1.59,1.53,3.18,2.29,4.77.35.73,1.29,1.08,2.04.98.74-.1,1.56-.68,1.7-1.46.6-3.46.38-7.03-.82-10.34-1.25.53-2.49,1.05-3.74,1.58.21.28.38.57.55.87.09.2.09.18-.03-.08.04.09.07.18.1.28.05.16.1.33.13.5.12.53,0-.31.03.11,0,.17.02.34.02.52,0,.15.02.37-.03.51.04-.3.04-.34,0-.11-.02.1-.04.19-.07.29,1-.41,2-.81,3-1.22-.74-.49-1.48-.98-2.22-1.47-.89-.59-2.3-.2-2.8.73-.54,1.03-.22,2.16.73,2.8.74.49,1.48.98,2.22,1.47,1.1.73,2.69,0,3-1.22.53-2.03.18-4.35-1.11-6.03-.63-.82-1.53-1.27-2.55-.84-.87.37-1.53,1.45-1.18,2.41.27.74.49,1.49.66,2.25.07.33.14.66.19.99.02.11.04.22.05.33-.03-.27-.04-.28,0-.04.02.17.04.33.05.5.06.72.08,1.45.06,2.18-.01.39-.04.78-.08,1.17-.02.17-.03.34-.06.5.09-.54-.04.19-.05.29,1.25-.16,2.49-.33,3.74-.49-.76-1.59-1.53-3.18-2.29-4.77-.46-.97-1.92-1.3-2.8-.73-.99.64-1.23,1.76-.73,2.8h0Z"/>
          <path class="cls-2" d="M1896.78,2328.63h-265.21c-2.63,0-2.64,4.09,0,4.09h264.11c.08-1.43.45-2.84,1.1-4.09Z"/>
          <path class="cls-2" d="M1783.06,2165.94c-7.49.08-14.97.17-22.46.25,1.45,10.71,2.9,21.42,4.35,32.13,5.12-1.58,10.12-3.67,14.92-6.03,1.1-.85,2.21-1.71,3.31-2.56,1.6-1.48,2.72-3.24,3.38-5.26.74-1.28,1.11-2.65,1.12-4.13.49-2.17.39-4.35-.29-6.52-.87-2.7-2.29-5.13-4.21-7.22-1.48-1.6-3.24-2.72-5.26-3.38-1.95-1.02-4.05-1.49-6.3-1.41-4.69-.55-9.48.18-14.1.97-3.38.58-6.7,1.5-10,2.42-6.64,1.85-13.26,3.76-19.87,5.75-3.78,1.14-7.56,2.3-11.32,3.48,6.16,2.51,12.31,5.01,18.47,7.52l-.07-.11c.74,2.75,1.49,5.5,2.23,8.26v-.1c-1.59,3.86-3.18,7.71-4.78,11.57l.08-.09c-1.1.85-2.21,1.71-3.31,2.56l.12-.06c-1.3.55-2.6,1.1-3.91,1.65l.15-.04c-1.45.19-2.9.39-4.35.58h.15c-1.45-.2-2.9-.39-4.35-.59l.14.04c-2.41-1.4-4.81-2.8-7.22-4.21l.11.09c-1.4-2.41-2.8-4.81-4.21-7.22l.06.14c-.19-1.45-.39-2.9-.58-4.35v.24c.73-2.75,1.48-5.5,2.22-8.26l-.09.22c.85-1.1,1.71-2.21,2.56-3.31-.1.14-.22.26-.36.36,1.1-.85,2.21-1.71,3.31-2.56-1.83,1.17-4.02,1.98-5.98,2.92-1.92.92-3.85,1.82-5.75,2.79-2.99,1.52-5.6,3.46-8.21,5.6-2.57,2.11-4.56,4.98-6.51,7.62-5.25,7.08-10.1,14.51-14.81,21.97-4.69,7.43-9.17,15-13.42,22.69-4.88,8.82-9.68,17.82-12.91,27.4-3.15,9.35-3.71,19.42-7.48,28.57.55-1.3,1.1-2.6,1.65-3.91-1.01,2.38-2.23,4.65-3.8,6.72.85-1.1,1.71-2.21,2.56-3.31-1.17,1.5-2.5,2.86-4,4.03,1.1-.85,2.21-1.71,3.31-2.56-1.26.96-2.59,1.76-4.04,2.39,1.3-.55,2.6-1.1,3.91-1.65-1.26.52-2.55.89-3.9,1.1-2.13.51-3.98,1.48-5.56,2.93-1.78,1.15-3.18,2.68-4.21,4.59-1.2,1.88-1.84,3.9-1.94,6.08-.49,2.17-.39,4.35.29,6.52,1.28,3.96,3.73,7.78,7.52,9.78,1.3.55,2.6,1.1,3.91,1.65,2.9.78,5.8.78,8.7,0,2.93-.45,5.73-1.76,8.37-3s5.03-3.24,7.27-5.09c1.31-1.08,2.46-2.31,3.5-3.64,1.96-2.49,3.88-4.92,5.31-7.75,2.3-4.57,4.07-9.42,5.3-14.39,1-4.06,1.75-8.19,2.67-12.27,1.03-4.55,2.38-8.97,4.18-13.28-.55,1.3-1.1,2.6-1.65,3.91,3.74-8.82,8.57-17.23,13.36-25.52,4.84-8.39,9.95-16.63,15.33-24.69,3-4.5,6.01-9.04,9.28-13.35-.85,1.1-1.71,2.21-2.56,3.31,1.13-1.45,2.34-2.79,3.78-3.93-1.1.85-2.21,1.71-3.31,2.56,3.94-3,8.79-4.85,13.22-6.98.59-.29,1.19-.57,1.78-.86,1.19-.57,1.86-1.09,3-1.97.99-.76,1.36-.97,2.01-1.64.85-1.1,1.71-2.21,2.56-3.31.31-.72.62-1.44.92-2.17.74-1.28,1.11-2.65,1.12-4.13.17-.8.27-1.6.3-2.41-.19-1.45-.39-2.9-.58-4.35-.29-.7-.58-1.4-.88-2.09-.39-1.39-1.09-2.59-2.1-3.61-.33-.71-.8-1.29-1.39-1.74-1.1-.85-2.21-1.71-3.31-2.56-1.26-.73-2.59-1.29-3.98-1.67-1.48-.41-3.04-.68-4.57-.6-1.45.19-2.9.39-4.35.58-.74.17-1.44.46-2.1.86-.72.24-1.41.53-2.08.89-1.1.85-2.21,1.71-3.31,2.56-2.07,1.9-2.51,3.11-3.46,5.35-.97,2.31-1.55,3.47-1.42,6.41.13,2.84.73,5.96,2.31,8.37.85,1.1,1.71,2.21,2.56,3.31,1.48,1.6,3.24,2.72,5.26,3.38,1.28.74,2.65,1.11,4.13,1.12,2.17.49,4.35.39,6.52-.29,7.09-2.22,14.2-4.37,21.34-6.43,7.03-2.03,14.14-4.42,21.41-5.45-1.45.19-2.9.39-4.35.58,2.73-.36,5.46-.47,8.2-.15-2.75-10.16-5.5-20.32-8.26-30.48-1.37.68-2.77,1.31-4.18,1.91,1.3-.55,2.6-1.1,3.91-1.65-2.24.93-4.52,1.76-6.84,2.47-3.83,1.18-7.85,3.87-9.78,7.52-.55,1.3-1.1,2.6-1.65,3.91-.68,2.17-.78,4.35-.29,6.52,0,1.48.38,2.85,1.12,4.13.66,2.03,1.79,3.78,3.38,5.26,3.18,2.92,7.15,4.84,11.57,4.79,7.49-.08,14.97-.17,22.46-.25,4.22-.05,8.57-1.79,11.57-4.79,1.6-1.48,2.72-3.24,3.38-5.26,1.02-1.95,1.49-4.05,1.41-6.3-.19-4.23-1.58-8.62-4.79-11.57-3.18-2.92-7.15-4.84-11.57-4.79h0Z"/>
          <path class="cls-2" d="M1929.16,2241.12c-1.33-5.1-3.49-9.95-5.55-14.78-2.76-6.5-5.63-12.98-8.85-19.26-3.75-7.32-8.2-14.04-13.35-20.46-5.03-6.28-11.34-11.74-18.25-15.85-7.84-4.66-16.73-7.56-25.47-10-17.66-4.93-35.5-8.79-53.71-11.02-18.23-2.23-36.5-1.89-54.58,1.42-17.46,3.2-34.11,9.86-50.17,17.26-7.21,3.32-14.34,6.95-20.77,11.64-4.21,3.07-8.3,6.32-11.96,10.04-2.81,2.86-5.4,5.92-7.88,9.06-5.52,6.99-10.86,14.16-15.99,21.44-4.43,6.28-8.63,12.76-12.06,19.65-3.91,7.85-7.29,16.21-8.72,24.9-.89,5.42-1.44,10.83-1.49,16.32-.04,4.27.11,8.54.12,12.81,0,3.15-.08,6.29-.36,9.42-.15.86-.27,1.72-.46,2.58-.93,4.29-.61,8.74,1.65,12.6,1.99,3.39,5.88,6.63,9.78,7.52,4.19.95,8.89.75,12.6-1.65,3.47-2.24,6.62-5.61,7.52-9.78,1.68-7.78,2.07-15.7,1.97-23.63-.08-5.96-.23-11.94.34-17.88.8-4.57,2.09-9.03,3.77-13.35,5.96-13.24,14.77-25.19,23.6-36.69,4.36-5.6,9.07-10.92,14.57-15.43,8.15-5.84,17.32-10.19,26.52-14.14,13.02-5.41,26.48-9.72,40.43-11.86,13.93-1.63,27.99-1.22,41.89.48,9.94,1.43,19.8,3.43,29.55,5.81,9.2,2.25,18.6,4.48,27.46,7.93,3.04,1.4,5.94,3.03,8.68,4.95,2.81,2.37,5.37,5,7.71,7.84,6.94,9.49,11.93,20.32,16.54,31.12,1.68,4.06,3.15,8.22,3.98,12.54.06,1.17.06,2.34,0,3.5-1.21,5.88-3.7,11.43-5.93,16.98-2.2,5.47-4.36,10.96-6.6,16.41-1.34,3.03-2.84,5.99-4.69,8.74-.57.63-1.17,1.24-1.79,1.82-.52.32-1.05.62-1.59.89-3.53,1.77-6.49,6.06-7.52,9.78-1.08,3.92-.59,9.13,1.65,12.6,2.25,3.49,5.6,6.57,9.78,7.52l4.35.58c2.95,0,5.7-.75,8.26-2.23,1.33-.67,2.58-1.47,3.8-2.33.59-.68,1.3-1.27,2.12-1.73.33-.27.68-.52,1.06-.74,4.67-4.09,8.43-9.35,11.15-14.76,4.06-8.06,7.1-16.69,10.46-25.05,1.59-3.97,3.25-7.91,4.74-11.92,1.89-5.13,2.95-10.26,3.45-15.73.48-5.28-.39-10.8-1.72-15.9Z"/>
          <path class="cls-2" d="M1870.26,2329.21c4.19,0,8.6-1.82,11.57-4.79,1.6-1.48,2.72-3.24,3.38-5.26,1.02-1.95,1.49-4.05,1.41-6.3-.19-4.23-1.58-8.62-4.79-11.57-3.2-2.94-7.13-4.79-11.57-4.79-4.19,0-8.6,1.82-11.57,4.79-1.6,1.48-2.72,3.24-3.38,5.26-1.02,1.95-1.49,4.05-1.41,6.3.19,4.23,1.58,8.62,4.79,11.57,3.2,2.94,7.13,4.79,11.57,4.79h0Z"/>
          <path class="cls-2" d="M1875.03,2296.18c-.75,0-1.5.01-2.25.02-2.25-.08-4.35.38-6.3,1.41-2.03.66-3.78,1.79-5.26,3.38-2.96,3.23-4.72,7.11-4.79,11.57-.15,9.4,7.9,17.02,17.13,17.05,1.59,0,3.24-.15,4.76-.65,2.78-.91,5.25-2.19,7.36-4.27,3.32-3.28,4.89-7.45,5.05-12.09.08-2.25-.38-4.35-1.41-6.3-.66-2.03-1.79-3.78-3.38-5.26-3.19-2.92-7.15-4.83-11.57-4.79-1.74.01-3.48.03-5.23.04-1.59.01-3.23.13-4.82-.04,1.45.19,2.9.39,4.35.58-.32-.05-.61-.12-.91-.23,1.3.55,2.6,1.1,3.91,1.65-.3-.13-.54-.26-.8-.45,1.1.85,2.21,1.71,3.31,2.56-.23-.2-.41-.4-.61-.63.85,1.1,1.71,2.21,2.56,3.31-1-1.39-1.68-3.06-2.36-4.63.55,1.3,1.1,2.6,1.65,3.91-1.58-3.74-2.74-7.67-3.32-11.7.19,1.45.39,2.9.58,4.35-.03-.32-.04-.6-.03-.92-.19,1.45-.39,2.9-.58,4.35.02-.2.07-.39.15-.57-.55,1.3-1.1,2.6-1.65,3.91l.15-.26c-.85,1.1-1.71,2.21-2.56,3.31.11-.15.24-.28.4-.38-1.1.85-2.21,1.71-3.31,2.56l.24-.14c-1.3.55-2.6,1.1-3.91,1.65.37-.15.72-.23,1.11-.28-1.45.19-2.9.39-4.35.58,1.24-.11,2.47-.05,3.7.11l-4.35-.58c2.82.39,5.52,1.27,8.25,2.01,1.39.38,2.79.71,4.22.94,2.53.4,5.45.96,8.11.78,1.93-.13,3.91-.27,5.77-.82.75-.27,1.49-.58,2.22-.92.75-.28,1.49-.6,2.21-.95.68-.41,1.31-.88,1.89-1.42.63-.48,1.25-.96,1.87-1.45.56-.56,1.05-1.18,1.47-1.86.5-.62.98-1.25,1.45-1.89.4-.7.72-1.43.96-2.21.32-.74.63-1.48.93-2.22.58-1.86.65-3.86.85-5.8.35-3.31.39-6.63.83-9.93-.19,1.45-.39,2.9-.58,4.35.54-3.75,1.7-7.31,3.17-10.79-.55,1.3-1.1,2.6-1.65,3.91,3.08-7.21,7.05-14.1,9.27-21.65.47-1.58.82-3.18,1.05-4.82.44-3.02.92-6.04.82-9.1-.1-3.05-.56-6.12-1.11-9.12-.33-1.76-.79-3.49-1.35-5.2-2.66-8.09-6.76-15.55-11.1-22.83-2.42-4.06-5.07-7.85-8.06-11.53-2.95-3.63-6.75-6.66-10.75-9.06-3.03-1.82-6.31-3.18-9.53-4.61-3.72-1.65-7.44-3.3-11.15-4.95-7.25-3.22-14.5-6.44-21.75-9.66-3.66-1.62-7.31-3.25-10.97-4.87-1.84-.82-3.68-1.65-5.52-2.45-2.78-1.21-5.7-2.7-8.74-3.21-2.02-.34-4.39-.82-6.54-.65-3.67.29-5.33.65-8.43,1.96-1.32.56-2.59,1.03-3.76,1.85-1.7,1.19-3.4,2.48-4.95,3.89-2.39,2.17-4.61,4.58-6.84,6.92-5.38,5.65-10.47,11.65-14.83,18.12-1.78,2.64-3.4,5.4-4.74,8.29-1.86,4.02-3.64,8.19-4.66,12.52-.66,2.84-.99,5.77-1.34,8.66,0,2.95.75,5.7,2.23,8.26,1.03,1.91,2.43,3.44,4.21,4.59,1.58,1.45,3.43,2.42,5.56,2.93,2.9.78,5.8.78,8.7,0,14.16-5.24,28.45-10.5,43.48-12.56-1.45.19-2.9.39-4.35.58,7.43-.99,14.96-1.19,22.4-.2-1.45-.19-2.9-.39-4.35-.58,1.92.27,3.82.61,5.71,1.03,2.17.68,4.35.78,6.52.29,2.18-.1,4.2-.75,6.08-1.94,1.1-.85,2.21-1.71,3.31-2.56,1.6-1.48,2.72-3.24,3.38-5.26.74-1.28,1.11-2.65,1.12-4.13.49-2.17.39-4.35-.29-6.52-1.26-3.91-3.72-7.87-7.52-9.78-7.15-3.59-14.71-6.34-22.39-8.54-6.54-1.87-13.17-3.44-19.69-5.36-3.66-1.08-7.29-2.28-10.84-3.69,1.3,9.97,2.6,19.93,3.91,29.9,2.2-1.02,4.41-2,6.64-2.94-1.3.55-2.6,1.1-3.91,1.65,10.46-4.4,21.27-7.94,32.3-10.58-4.2-9.97-8.4-19.93-12.6-29.9-2.98,2.1-5.94,4.35-8.56,6.9-2.63,2.56-4.85,5.51-7.04,8.45-1.2,1.88-1.84,3.9-1.94,6.08-.49,2.17-.39,4.35.29,6.52.51,2.13,1.48,3.98,2.93,5.56,1.15,1.78,2.68,3.18,4.59,4.21,3.8,2.01,8.39,3.01,12.6,1.65,1.3-.55,2.6-1.1,3.91-1.65,2.46-1.45,4.41-3.41,5.87-5.87.21-.28.42-.56.63-.84-.85,1.1-1.71,2.21-2.56,3.31,2.17-2.76,4.64-5.24,7.41-7.4-1.1.85-2.21,1.71-3.31,2.56.56-.43,1.12-.84,1.69-1.24,1.91-1.03,3.44-2.43,4.59-4.21,1.45-1.58,2.42-3.43,2.93-5.56.19-1.45.39-2.9.58-4.35.08-2.25-.38-4.35-1.41-6.3-.39-1.39-1.09-2.59-2.1-3.61-1.15-1.78-2.68-3.18-4.59-4.21-3.97-2.1-8.19-2.71-12.6-1.65-14.79,3.54-29.06,8.79-42.85,15.17-1.1.85-2.21,1.71-3.31,2.56l-2.56,3.31-1.65,3.91c-.68,2.17-.78,4.35-.29,6.52,0,1.48.38,2.85,1.12,4.13.39,1.39,1.09,2.59,2.1,3.61.73,1.23,1.71,2.21,2.93,2.93,1.58,1.45,3.43,2.42,5.56,2.93,14.45,5.73,30.07,7.77,44.42,13.81-1.3-.55-2.6-1.1-3.91-1.65,1.56.66,3.09,1.37,4.61,2.13,4.2-9.97,8.4-19.93,12.6-29.9-5.99-1.34-12.2-2.12-18.33-2.26-5.47-.12-10.88.41-16.29,1.13-10.33,1.39-20.3,3.96-30.16,7.29-5.2,1.75-10.34,3.66-15.49,5.56,6.9,5.26,13.8,10.51,20.7,15.77.03-.22.05-.43.08-.65-.19,1.45-.39,2.9-.58,4.35.52-3.73,1.57-7.34,3.03-10.82-.55,1.3-1.1,2.6-1.65,3.91,2.19-5.1,5.19-9.78,8.58-14.16-.85,1.1-1.71,2.21-2.56,3.31,2.59-3.33,5.39-6.49,8.28-9.56,1.4-1.49,2.83-2.96,4.26-4.42,1.49-1.51,2.94-3.09,4.62-4.4-1.1.85-2.21,1.71-3.31,2.56.69-.51,1.41-.95,2.2-1.31-1.3.55-2.6,1.1-3.91,1.65.64-.25,1.27-.43,1.95-.53-1.45.19-2.9.39-4.35.58.74-.08,1.46-.06,2.2.02-1.45-.19-2.9-.39-4.35-.58,1.63.24,3.16.8,4.67,1.43-1.3-.55-2.6-1.1-3.91-1.65,16.78,7.23,33.41,14.83,50.11,22.24,4.18,1.85,8.44,3.64,12.08,6.45-1.1-.85-2.21-1.71-3.31-2.56,1.9,1.51,3.55,3.27,5.05,5.18-.85-1.1-1.71-2.21-2.56-3.31,2.57,3.34,4.67,7.01,6.79,10.64,2.23,3.81,4.36,7.69,6.09,11.76-.55-1.3-1.1-2.6-1.65-3.91,1.48,3.54,2.64,7.21,3.16,11.03-.19-1.45-.39-2.9-.58-4.35.33,2.59.35,5.18.01,7.77.19-1.45.39-2.9.58-4.35-.5,3.5-1.61,6.84-2.96,10.09.55-1.3,1.1-2.6,1.65-3.91-2.74,6.49-6.1,12.68-8.53,19.31-1.5,4.12-2.1,8.24-2.64,12.6-.42,3.36-.42,6.77-.85,10.13.19-1.45.39-2.9.58-4.35-.07.4-.16.76-.31,1.13.55-1.3,1.1-2.6,1.65-3.91-.08.18-.19.34-.31.49.85-1.1,1.71-2.21,2.56-3.31-.12.14-.26.27-.41.37,1.1-.85,2.21-1.71,3.31-2.56-.15.11-.32.19-.49.27,1.3-.55,2.6-1.1,3.91-1.65-.37.14-.73.22-1.11.28,1.45-.19,2.9-.39,4.35-.58-1.33.15-2.67.07-3.99-.1,1.45.19,2.9.39,4.35.58-3.56-.51-6.94-1.79-10.44-2.57-2.97-.66-6.06-1.18-9.1-1.18-.44,0-.88.02-1.32.06-1.45.12-3.22.34-4.64.62-.14.03-.28.06-.42.1-4.65,1.38-8.3,4.25-10.88,8.31-1.71,2.7-2.68,6.73-2.43,9.88.18,2.28.56,4.6,1.03,6.84.39,1.88.89,3.74,1.49,5.56,1.01,3.04,2.29,6.01,3.64,8.91.35.76.72,1.52,1.12,2.26.19.35.4.68.63,1.01.95,1.35,1.95,2.81,3.16,3.94.55.43,1.1.85,1.66,1.28.62.5,1.25.99,1.89,1.45.79.45,1.69.76,2.51,1.11,2.22.94,2.64,1.02,5.04,1.34,1.74.23,3.26.37,4.98.35,2.41-.02,4.82-.04,7.24-.06-5.45-5.45-10.9-10.9-16.36-16.36v.17c.19-1.45.38-2.9.58-4.35l-.05.14c.55-1.3,1.1-2.6,1.65-3.91l-.09.12c.85-1.1,1.71-2.21,2.56-3.31l-.12.09c1.1-.85,2.21-1.71,3.31-2.56l-.14.07c1.3-.55,2.6-1.1,3.91-1.65l-.16.04c1.45-.19,2.9-.39,4.35-.58-.11.02-.22.03-.34.02,1.45.19,2.9.39,4.35.58-.11-.01-.22-.04-.32-.08,1.3.55,2.6,1.1,3.91,1.65l-.14-.08c1.1.85,2.21,1.71,3.31,2.56l-.11-.1c.85,1.1,1.71,2.21,2.56,3.31l-.08-.12c.55,1.3,1.1,2.6,1.65,3.91l-.04-.15c.19,1.45.39,2.9.58,4.35v-.17c-5.45,5.45-10.9,10.9-16.35,16.36.75,0,1.5-.01,2.25-.02,4.22-.04,8.57-1.8,11.57-4.79,1.6-1.48,2.72-3.24,3.38-5.26,1.02-1.95,1.49-4.05,1.41-6.3-.19-4.23-1.58-8.62-4.79-11.57-3.18-2.92-7.15-4.83-11.57-4.79h0Z"/>
          <path class="cls-2" d="M1900.42,2225.45c-14.69-4.75-29.47-9.53-44.76-11.93-8.67-1.36-17.36-2.18-26.13-2.44-7.42-.22-14.84-.16-22.26-.26-8.28-.11-16.57-.41-24.79-1.5,1.45.19,2.9.39,4.35.58-6.05-.82-12.04-2.08-17.84-3.97-5.77-1.88-11.37-4.29-17.28-5.7-4.27-1.02-8.73-1.65-13.13-1.77-4.56-.13-9.06.52-13.56,1.14-6.48.89-12.89,2.32-19.31,3.6-7.25,1.45-14.51,2.91-21.76,4.37-1.3.55-2.6,1.1-3.91,1.65-1.91,1.03-3.44,2.43-4.59,4.21-1.99,2.57-3.96,6.54-3.51,9.91.26,1.98.28,3.99.99,5.85,1.46,3.84,2.16,5.14,4.84,8.25,1.66,1.92,3.82,3.55,6.07,4.72,4.1,2.14,8.27,3.29,12.75,4.21,8.68,1.79,17.59,2.84,26.45,3.05,15.51.37,30.98-1.57,46.5-1.1,8.63.26,17.22,1.31,25.77,2.45-1.45-.19-2.9-.39-4.35-.58,13.22,1.78,26.39,3.58,39.71,4.43,11.95.77,23.92,1.13,35.86,1.93,6.77.46,13.53,1.07,20.25,1.96-1.45-.19-2.9-.39-4.35-.58,1.92.26,3.84.54,5.75.85-2.41-9.11-4.81-18.23-7.22-27.34-.74.73-1.51,1.4-2.33,2.04,1.1-.85,2.21-1.71,3.31-2.56-1.85,1.39-3.86,2.52-5.98,3.45,1.3-.55,2.6-1.1,3.91-1.65-4.13,1.74-8.51,2.68-12.93,3.29,1.45-.19,2.9-.39,4.35-.58-14.77,1.97-29.94,1.67-44.69-.28,1.45.19,2.9.39,4.35.58-9.15-1.23-18.07-3.56-27.16-5.07-5.74-.96-11.59-1.78-17.43-1.72-5.79.06-11.6.86-17.28,1.88-8.94,1.6-17.65,4.33-26.33,6.96-9.64,2.92-19.11,6.19-28.28,10.38-8.99,4.1-16.91,10.17-26.02,14.02,1.3-.55,2.6-1.1,3.91-1.65-4.68,1.95-9.53,3.63-14,6.06-4.56,2.48-8.58,5.95-12.5,9.31-6.39,5.49-12.77,10.99-19.16,16.48-3.7,3.19-7.41,6.37-11.11,9.56-1.6,1.48-2.72,3.24-3.38,5.26-1.02,1.95-1.49,4.05-1.41,6.3,0,4.01,1.78,8.8,4.79,11.57,3.12,2.86,7.21,4.99,11.57,4.79,1.45-.19,2.9-.39,4.35-.58,2.77-.78,5.18-2.18,7.22-4.21,5.77-4.97,11.55-9.93,17.32-14.9,5.64-4.85,11.15-9.92,17.01-14.49-1.1.85-2.21,1.71-3.31,2.56,3.03-2.32,6.28-4.11,9.8-5.59-1.3.55-2.6,1.1-3.91,1.65,4.15-1.73,8.38-3.3,12.43-5.25,2.97-1.43,5.81-3.1,8.63-4.8,5.66-3.41,11.33-6.63,17.43-9.21-1.3.55-2.6,1.1-3.91,1.65,8.12-3.4,16.55-5.95,24.97-8.48,8.74-2.62,17.51-5.22,26.57-6.46-1.45.19-2.9.39-4.35.58,6.33-.83,12.63-.84,18.96,0-1.45-.19-2.9-.39-4.35-.58,6.99.97,13.83,2.7,20.75,4.01,8.04,1.52,16.2,2.6,24.36,3.2,6.95.51,13.94.61,20.9.3,7.57-.33,15.28-.99,22.69-2.57,8.66-1.85,17.02-5.86,23.38-12.11,4.15-4.08,5.75-10.32,4.21-15.91-.78-2.77-2.18-5.18-4.21-7.22-2.04-2.03-4.45-3.43-7.22-4.21-12.79-2.05-25.66-3.19-38.59-3.89-11.63-.63-23.28-1.02-34.89-1.96-6.64-.54-13.25-1.32-19.86-2.21,1.45.19,2.9.39,4.35.58-13.54-1.82-27.11-4-40.81-4.21-12.42-.19-24.8,1.02-37.21,1.18-6.98.09-13.95-.19-20.88-1.11,1.45.19,2.9.39,4.35.58-2.95-.41-5.88-.91-8.78-1.53-2.43-.52-4.91-1.01-7.21-1.98,1.3.55,2.6,1.1,3.91,1.65-.92-.41-1.78-.89-2.58-1.5,1.1.85,2.21,1.71,3.31,2.56-.41-.34-.77-.69-1.1-1.1.85,1.1,1.71,2.21,2.56,3.31-.24-.33-.45-.67-.63-1.04.55,1.3,1.1,2.6,1.65,3.91-.16-.39-.28-.77-.36-1.18.19,1.45.39,2.9.58,4.35l-.04-.32c-4,5.26-8.01,10.51-12.01,15.77,6.85-1.38,13.7-2.76,20.55-4.13s13.63-2.91,20.51-3.84c-1.45.19-2.9.39-4.35.58,4.5-.58,9.03-.79,13.54-.21-1.45-.19-2.9-.39-4.35-.58,6.94.98,13.42,3.7,20.01,5.97,7.8,2.68,15.76,4.07,23.92,5.14,13.91,1.82,27.96,1.42,41.95,1.64,7.88.12,15.76.46,23.57,1.49-1.45-.19-2.9-.39-4.35-.58,16.46,2.22,32.32,7.32,48.07,12.41,3.93,1.27,9.1.4,12.6-1.65,3.39-1.99,6.63-5.88,7.52-9.78.95-4.19.75-8.89-1.65-12.6-2.37-3.67-5.58-6.16-9.78-7.52h0Z"/>
          <path class="cls-2" d="M1657.98,2330.48c4.19,0,8.6-1.82,11.57-4.79,1.6-1.48,2.72-3.24,3.38-5.26,1.02-1.95,1.49-4.05,1.41-6.3-.19-4.23-1.58-8.62-4.79-11.57-3.2-2.94-7.13-4.79-11.57-4.79-4.19,0-8.6,1.82-11.57,4.79-1.6,1.48-2.72,3.24-3.38,5.26-1.02,1.95-1.49,4.05-1.41,6.3.19,4.23,1.58,8.62,4.79,11.57,3.2,2.94,7.13,4.79,11.57,4.79h0Z"/>
          <path class="cls-2" d="M1683.96,2324.15c2.95-.61,5.89-1.22,8.84-1.82-2.9-10.51-5.8-21.03-8.7-31.54-3.99,1.03-7.99,2.07-11.98,3.1,2.9,10.51,5.8,21.03,8.7,31.54,6.72-2.42,13.45-4.85,20.16-7.31,4.28-1.57,8.55-3.25,12.67-5.22,2.99-1.43,5.73-3.2,8.43-5.12,3.06-2.19,6.15-4.13,9.62-5.62-1.3.55-2.6,1.1-3.91,1.65,4.43-1.86,9.04-3.29,13.58-4.85,4.78-1.64,9.55-3.28,14.33-4.91,9.3-3.19,18.56-6.55,28.04-9.18,5.22-1.45,10.51-2.63,15.88-3.37-1.45.19-2.9.39-4.35.58,5.01-.67,10.04-.88,15.09-.67,5.11.22,10.19.79,15.27,1.27,10.28.99,20.54,1.09,30.85.59,5.79-.28,11.57-.7,17.35-1.12-3.86-9.31-7.71-18.61-11.57-27.92-.19.15-.39.31-.58.46,1.1-.85,2.21-1.71,3.31-2.56-4.36,3.34-9.27,5.82-14.14,8.31-5.34,2.73-10.67,5.45-16.01,8.18-10.61,5.42-21.22,10.84-31.84,16.26-5.72,2.92-11.43,5.91-17.34,8.42l3.91-1.65c-7.26,3.06-14.82,5.19-22.63,6.24,1.45-.19,2.9-.39,4.35-.58-7.51.98-15.11.98-22.62-.03,5.26,6.9,10.51,13.8,15.77,20.7.13-.9.37-1.76.72-2.6-.55,1.3-1.1,2.6-1.65,3.91.41-.92.93-1.77,1.55-2.57-.85,1.1-1.71,2.21-2.56,3.31.78-.96,1.65-1.81,2.62-2.58-1.1.85-2.21,1.71-3.31,2.56,1.49-1.14,3.12-2.02,4.84-2.76-1.3.55-2.6,1.1-3.91,1.65,3.51-1.46,7.22-2.33,10.75-3.73,4.87-1.93,9.48-4.14,14.01-6.74,7.2-4.12,14.37-8.29,21.56-12.44,3.55-2.05,6.43-5.83,7.52-9.78.68-2.17.78-4.35.29-6.52-.1-2.18-.75-4.2-1.94-6.08-2.25-3.49-5.6-6.57-9.78-7.52-4.31-.98-8.71-.6-12.6,1.65-5.18,2.99-10.37,5.98-15.55,8.98-4.93,2.85-9.81,5.88-15.06,8.12,1.3-.55,2.6-1.1,3.91-1.65-6.03,2.53-12.47,3.79-18.23,7.02-2.05,1.15-3.97,2.75-5.75,4.19-.84.68-1.61,1.42-2.31,2.25-1.5,1.78-3.15,3.71-4.17,5.85-.97,2.04-2.15,4.44-2.49,6.78-.78,2.9-.78,5.8,0,8.7.51,2.13,1.48,3.98,2.93,5.56,1.15,1.78,2.68,3.18,4.59,4.21,2.55,1.48,5.3,2.22,8.26,2.23,10.03,1.34,20,.67,29.96-1,9.92-1.67,19.23-5.31,28.3-9.57,8.25-3.88,16.3-8.19,24.41-12.33,8.31-4.24,16.62-8.49,24.92-12.73,4.6-2.35,9.22-4.69,13.81-7.06,2.09-1.08,4.18-2.19,6.2-3.39,3.23-1.93,6.18-4.2,9.12-6.54.85-1.1,1.71-2.21,2.56-3.31l1.65-3.91c.19-1.45.39-2.9.58-4.35.08-2.25-.38-4.35-1.41-6.3-.39-1.39-1.09-2.59-2.1-3.61-.73-1.23-1.71-2.21-2.93-2.93-1.02-1.01-2.22-1.71-3.61-2.1-1.95-1.02-4.05-1.49-6.3-1.41-11.95.87-23.93,1.74-35.92,1.36-11.92-.38-23.78-2.73-35.73-2.1-12.8.67-25.24,3.76-37.37,7.73-11.2,3.67-22.32,7.61-33.47,11.43-3.05,1.05-6.12,2.06-9.15,3.18-4.07,1.5-8.21,3.11-11.95,5.33-2.7,1.6-5.14,3.58-7.76,5.3-2.59,1.69-5.37,3.06-8.21,4.26,1.3-.55,2.6-1.1,3.91-1.65-4.15,1.74-8.41,3.21-12.64,4.74-4.47,1.62-8.94,3.24-13.41,4.85-2.13.51-3.98,1.48-5.56,2.93-1.78,1.15-3.18,2.68-4.21,4.59-1.2,1.88-1.84,3.9-1.94,6.08-.49,2.17-.39,4.35.29,6.52,1.28,3.96,3.73,7.78,7.52,9.78,3.93,2.08,8.23,2.78,12.6,1.65,3.99-1.03,7.99-2.07,11.98-3.1,2.13-.51,3.98-1.48,5.56-2.93,1.78-1.15,3.18-2.68,4.21-4.59,1.2-1.88,1.84-3.9,1.94-6.08.49-2.17.39-4.35-.29-6.52-1.28-3.96-3.73-7.78-7.52-9.78-1.3-.55-2.6-1.1-3.91-1.65-2.9-.78-5.8-.78-8.7,0-2.95.61-5.89,1.22-8.84,1.82-2.13.51-3.98,1.48-5.56,2.93-1.78,1.15-3.18,2.68-4.21,4.59-1.2,1.88-1.84,3.9-1.94,6.08-.49,2.17-.39,4.35.29,6.52,1.28,3.96,3.73,7.78,7.52,9.78,1.3.55,2.6,1.1,3.91,1.65,2.9.78,5.8.78,8.7,0h0Z"/>
        </g>
        <path class="cls-2" d="M1252.71,1806.76c-8.57,1.56-17.15,3.12-25.72,4.67-.99.18-1.6,1.32-1.46,2.24.16,1.03.97,1.72,2.01,1.77,1.98.1,3.96.21,5.94.31.92.05,1.85.1,2.77.14.18,0,1.97.23,2.02.12-.26-.43-.32-.44-.18-.04-.01.11,0,.23,0,.34.02.39-.01.8-.03,1.19-.06,1.06-.21,2.1-.33,3.15-.2,1.74-.3,3.44-.04,5.18.22,1.54.74,3.05,1.68,4.31.29.39.61.75.94,1.11.13.14.43.36.5.54.15.39-.29,1.28-.45,1.67-.19.46-.39.87-.81,1.13,0,0-.19.08.05.08.1.07.12.08.04.01-.11-.17-.2-.35-.28-.53-.67-1.49-1.11-3.21-1.32-4.82-1.34.18-2.68.36-4.02.54.54,1.28,1.08,2.57,1.62,3.85.78,1.86,3.2,2,3.94,0,.47-1.26.64-2.63.48-3.97-.86.66-1.73,1.31-2.59,1.97.76.26,1.43.66,2.02,1.2,1.03.94,2.44.69,3.21-.41.93-1.34.87-2.93.18-4.35-1-2.07-4.49-.62-3.74,1.58.15.45.31.89.46,1.34.1.28.22,1.36.39.65.18-.3.35-.6.53-.9.12-.16.61-.15.16-.1-.31.03-.64.13-.95.19-.52.1-1.03.18-1.55.25-1.15.14-2.31.21-3.46.22-2.27.02-4.51-.21-6.73-.68-1.07-.23-2.22.31-2.52,1.43-.63,2.42-.9,4.92-.77,7.42s4.09,2.65,4.09,0c0-.58-.05-1.23.14-1.79-.01.04.29-.75.43-.5.01.02-.36-.08-.41-.05-.01,0,.64.82.48.63.46.55,1,.87,1.68,1.11.85.3,1.87-.2,2.31-.94.2-.34.4-.68.6-1.02-1.25-.53-2.49-1.05-3.74-1.58-.34,1.17-.88,2.18-1.6,3.15.93-.24,1.86-.49,2.8-.73-.82-.36-1.55-.88-1.88-1.76-1,.77-2,1.54-3,2.31,1.55.9,3.4,1.6,5.12.7,1.41-.75,2.39-2.54,1.76-4.11-.41-1.02-1.36-1.74-2.52-1.43-.97.27-1.84,1.49-1.43,2.52.17.42.04.27.13-.46.02-.13.28-.07.2-.17-.04-.06-.22-.04-.28-.08-.29-.18-.62-.33-.92-.5-1.44-.84-3.65.58-3,2.31.69,1.84,1.93,3.4,3.76,4.2,1.1.48,2.07.24,2.8-.73.92-1.24,1.58-2.64,2.01-4.13.65-2.23-2.57-3.57-3.74-1.58-.2.34-.4.68-.6,1.02.77-.31,1.54-.63,2.31-.94.32.11.19.21.21.03.01-.13-.47-.63-.57-.73-.36-.38-.79-.66-1.27-.85-1.07-.42-2.26-.29-3.28.23-2.19,1.14-2.59,3.62-2.59,5.86h4.09c-.12-2.16.08-4.25.62-6.33-.84.48-1.68.95-2.52,1.43,3.64.79,7.38,1.05,11.09.63,1.51-.17,3.85-.2,5.08-1.23,1.77-1.48.62-3.64.01-5.4-1.25.53-2.49,1.05-3.74,1.58.02.14.02.1,0-.1-.02.13-.08.24-.19.33,1.07-.14,2.14-.28,3.21-.41-1.13-1.03-2.38-1.76-3.83-2.25-1.16-.39-2.74.68-2.59,1.97.12,1.03.02,1.91-.34,2.89h3.94c-.54-1.28-1.08-2.57-1.62-3.85-.4-.94-1.15-1.63-2.24-1.46-.9.13-1.91.99-1.77,2.01.25,1.86.62,3.68,1.28,5.44s1.43,3.34,3.32,3.81c1.87.46,3.7-.56,4.77-2.05.87-1.22,1.62-3.14,1.62-4.66,0-1.96-1.46-2.84-2.41-4.31-.8-1.24-.95-2.77-.93-4.21.04-1.89.4-3.76.53-5.65.13-1.84.08-4.03-1.68-5.13-1.7-1.06-4.25-.76-6.18-.87-2.24-.12-4.48-.23-6.73-.35.18,1.34.36,2.68.54,4.02,8.57-1.56,17.15-3.12,25.72-4.67,1.09-.2,1.7-1.52,1.43-2.52-.31-1.14-1.42-1.63-2.52-1.43h0Z"/>
        <path class="cls-2" d="M1371.5,2328.31h-817.68c-2.06,0-2.07,4.97,0,4.97h1340.46c2.06,0,2.07-4.97,0-4.97"/>
        <path class="cls-2" d="M1172.21,2313.78c7.76.83,15.59.78,23.34-.13,1.1-.13,2.04-.85,2.04-2.04,0-1-.94-2.18-2.04-2.04-7.75.92-15.58.96-23.34.13-1.1-.12-2.04,1.02-2.04,2.04,0,1.2.94,1.93,2.04,2.04h0Z"/>
        <path class="cls-2" d="M1319.88,2320.36c7.93.07,15.85-.07,23.77-.42,2.62-.12,2.64-4.21,0-4.09-7.92.35-15.85.49-23.77.42-2.63-.02-2.63,4.07,0,4.09h0Z"/>
        <path class="cls-2" d="M1387.81,2307.49c-.21.13-.41.29-.59.44-.06.05-.12.1-.17.16-.11.12-.21.25-.31.37s-.2.25-.28.39c-.04.06-.07.13-.1.2-.1.22-.21.45-.28.69-.02.07-.04.15-.06.23-.04.21-.06.42-.09.63,0,.04,0,.09-.01.13-.01.28.05.54.18.79.08.25.22.47.42.66.19.2.4.34.66.42.24.13.51.19.79.18l.54-.07c.35-.1.65-.27.9-.53l.32-.41c.18-.32.28-.66.28-1.03,0-.05,0-.1.01-.16l-.07.54c.02-.15.06-.3.12-.45l-.21.49c.06-.15.15-.29.24-.42-.11.14-.21.28-.32.41.1-.12.21-.23.33-.33l-.41.32c.05-.04.11-.08.17-.11.24-.13.43-.3.57-.53.18-.2.3-.43.37-.7.09-.27.1-.54.04-.82-.01-.27-.09-.53-.24-.76l-.32-.41c-.26-.25-.56-.43-.9-.53-.18-.02-.36-.05-.54-.07-.37,0-.71.09-1.03.28h0Z"/>
        <path class="cls-2" d="M1373.32,2295.19c-18.66,1.23-37.32,2.46-55.98,3.69-18.5,1.22-37.02,2.27-55.51,3.76-10.42.84-20.83,1.93-31.16,3.55.36,1.31.72,2.63,1.09,3.94,15.35-2.43,30.88-3.28,46.38-4.1,15.54-.82,31.09-1.65,46.59-2.93,4.2-.35,8.42-.81,12.54-1.77,2.03-.47,3.99-1.15,5.98-1.77,1.78-.56,3.67-1.09,5.55-.71.18-1.34.36-2.68.54-4.02-11.65.77-23.3,1.54-34.95,2.31.18,1.34.36,2.68.54,4.02,9.18-1.75,18.36-3.49,27.55-5.24,1.09-.21,1.7-1.51,1.43-2.52-.31-1.14-1.43-1.63-2.52-1.43-9.18,1.75-18.36,3.49-27.55,5.24-2.25.43-1.76,4.17.54,4.02,11.65-.77,23.3-1.54,34.95-2.31,1.01-.07,1.88-.73,2.01-1.77.11-.95-.45-2.04-1.46-2.24-3.84-.78-7.3.65-10.92,1.74-3.57,1.07-7.26,1.67-10.97,2.06-7.76.81-15.57,1.21-23.35,1.71-15.8,1.01-31.63,1.6-47.43,2.78-8.88.67-17.75,1.59-26.55,2.98-1.09.17-1.7,1.54-1.43,2.52.32,1.16,1.42,1.6,2.52,1.43,18.09-2.83,36.39-3.92,54.64-5.12,18.52-1.22,37.05-2.44,55.57-3.66,10.45-.69,20.9-1.38,31.35-2.07,1.1-.07,2.04-.89,2.04-2.04,0-1.05-.94-2.12-2.04-2.04h0Z"/>
        <path class="cls-2" d="M1707.24,1211.8c-1.57,3.33-3.14,6.66-4.7,9.99-.74,1.58-1.45,3.19-2.31,4.71-.79,1.39-1.76,2.62-2.8,3.84-4.38,5.13-8.79,10.45-14.11,14.65-1.3,1.03-2.71,1.94-4.2,2.66-.75.36-1.55.64-2.35.84-.35.09-.7.17-1.05.22-.19.03-.38.05-.57.06-.1.01-.2.01-.3.01-.33,0-.18.06.46.22.18.3.35.6.53.9l.02.04c-.09.34-.19.69-.28,1.03.28-.62,1.17-1.05,1.7-1.46.72-.55,1.43-1.11,2.13-1.67,1.43-1.13,2.83-2.29,4.22-3.47,2.68-2.28,5.29-4.64,7.82-7.08,2.49-2.4,4.94-4.86,7.25-7.44,2.3-2.56,4.34-5.32,5.44-8.62-1.31-.36-2.63-.72-3.94-1.09-2.59,9.9-10.59,16.89-18.74,22.43-2.16,1.47-.28,4.78,2.06,3.53,2.06-1.1,4.21-2.29,6.59-2.44,2.61-.17,2.63-4.26,0-4.09-3.15.2-5.91,1.53-8.65,2.99.69,1.18,1.38,2.35,2.06,3.53,9.03-6.14,17.75-13.91,20.62-24.88.67-2.56-3.11-3.57-3.94-1.09-.93,2.77-2.79,5.07-4.73,7.2-2.22,2.43-4.53,4.77-6.9,7.05-4.84,4.66-9.97,8.93-15.26,13.05-1.44,1.12-2.22,3.17-.73,4.63,1.2,1.17,3.16.8,4.62.51,3.02-.6,5.77-2.21,8.19-4.06,5.33-4.08,9.74-9.24,14.09-14.31,1.21-1.41,2.45-2.82,3.49-4.37,1.03-1.54,1.8-3.23,2.59-4.9,1.74-3.69,3.48-7.39,5.22-11.08.47-1,.28-2.21-.73-2.8-.89-.52-2.32-.27-2.8.73h0Z"/>
      </g>
      <ellipse class="cls-2" cx="1333.53" cy="2394.65" rx="578.85" ry="96.88"/>
      <path class="cls-2" d="M1601.56,817.4c.09.31.16.63.21.96l-.09-.66c.07.54.07,1.09,0,1.63l.09-.66c-.08.54-.22,1.07-.43,1.58l.25-.6c-.11.25-.23.49-.37.73-.33.56-.42,1.3-.25,1.93.16.58.61,1.21,1.15,1.49.58.31,1.28.46,1.93.25s1.16-.58,1.49-1.15c1.2-2.03,1.53-4.56.85-6.82-.18-.61-.59-1.17-1.15-1.49s-1.33-.45-1.93-.25-1.19.57-1.49,1.15-.45,1.27-.25,1.93h0Z"/>
      <path class="cls-4" d="M852.35,2340.2c11.37-1.41,22.67-3.34,33.86-5.84,2.73-.61,2.16-5.04-.66-4.91-13.14.59-26.23,2.38-39.04,5.34-1.06.25-1.84,1.35-1.84,2.41,0,1.18.8,2,1.84,2.41,5.46,2.16,11.3,2.69,17.09,1.88,1.34-.19,2.07-1.89,1.75-3.08-.4-1.44-1.73-1.93-3.08-1.75-4.89.68-9.87-.07-14.44-1.88v4.82c12.39-2.86,25.01-4.59,37.71-5.16l-.66-4.91c-10.75,2.4-21.6,4.31-32.53,5.66-1.34.17-2.5,1.03-2.5,2.5,0,1.22,1.15,2.67,2.5,2.5h0Z"/>
      <path class="cls-4" d="M1791.68,2328.2c-2.38.36-4.52,1.98-5.6,4.13-.95,1.89.62,4.28,2.82,3.67,4.6-1.28,9.19-2.56,13.79-3.84l-2.43-4.18c-7.37,5.94-16.63,9.52-26.07,10.17l1.77,4.27c7.19-6.32,15.64-11.15,24.73-14.16,3.04-1.01,1.74-5.84-1.33-4.82-9.94,3.29-19.08,8.54-26.94,15.45-1.59,1.39-.36,4.41,1.77,4.27,10.87-.75,21.13-4.81,29.6-11.64,2.02-1.63-.18-4.81-2.43-4.18-4.6,1.28-9.19,2.56-13.79,3.84l2.82,3.67c.57-1.13,1.37-1.64,2.61-1.83,1.34-.2,2.07-1.88,1.75-3.08-.39-1.43-1.74-1.95-3.08-1.75h0Z"/>
      <path class="cls-2" d="M1356.87,858.84c1.25.64,2.69.91,4.09.88.7-.02,1.34-.19,1.99-.42.3-.06.33-.08.09-.04.13,0,.26-.02.39-.02.33-.01.65-.01.98-.01,1.32,0,2.64.07,3.96.13.65.03,1.3.06,1.96.1.28.02.56.04.84.06.19.01.37.03.56.04.66.09.4-.07-.79-.47l-.73-1.77v.14c.42-.72.84-1.44,1.25-2.16.38-.16-.35.08-.36.08-.16.04-.33.08-.49.11-.25.05-.5.09-.75.13l-.25.04c.2-.03.21-.03.03,0-1.02.12-2.04.23-3.05.41s-1.87.48-2.76.89c-.4.19-.79.41-1.17.63-.18.1-.35.2-.53.29-.09.05-.71.3-.28.14-1.22.46-2.19,1.71-1.75,3.08.39,1.19,1.77,2.24,3.08,1.75.97-.37,1.83-.87,2.75-1.35.02,0,.68-.3.3-.16.19-.07.39-.14.59-.2.44-.13.89-.22,1.35-.3.06,0,.69-.1.42-.06s.37-.04.42-.05c.64-.08,1.29-.15,1.93-.25,1.09-.16,2.03-.43,3.05-.86.73-.31,1.31-1.39,1.24-2.16-.12-1.32-.8-2.34-2.1-2.72-.77-.23-1.7-.2-2.5-.26-1.4-.09-2.8-.15-4.21-.2-1.48-.05-3.08-.19-4.53.15-.3.07-.61.17-.89.28-.29.07-.29.08-.01.02-.15,0-.31,0-.46-.01-.1,0-1.02-.14-.55-.04-.16-.03-.32-.07-.48-.11-.28-.09-.31-.1-.08-.03-1.16-.6-2.77-.34-3.42.9-.61,1.15-.34,2.78.9,3.42h0Z"/>
    </g>
  </g>
</svg>